<?xml version="1.0" encoding="UTF-8"?>
<svg id="_レイヤー_2" data-name="レイヤー_2" xmlns="http://www.w3.org/2000/svg" viewBox="0 0 105.36 141.23">
  <defs>
    <style>
      .cls-1 {
        fill: #a92324;
      }

      .cls-2 {
        stroke-width: 2px;
      }

      .cls-2, .cls-3 {
        fill: #fff;
        stroke: #231815;
        stroke-miterlimit: 10;
      }

      .cls-4 {
        fill: #231815;
      }

      .cls-5 {
        fill: #c35d5d;
      }

      .cls-6 {
        fill: #be3a39;
      }
    </style>
  </defs>
  <g id="_レイヤー_1-2" data-name="レイヤー_1">
    <path class="cls-3" d="M68.21,26.81l1.14.29S42.23,125.88,1.43,140.58l-.75-2.96c2.92.54,40.72-16.75,67.53-110.81Z"/>
    <path class="cls-4" d="M77.93,60.41c3.33-1.85,7.23-2.08,10.66-.81.01,0,.02,0,.04,0h0c2.18.82,4.16,2.22,5.68,4.2,4.3,5.62,3.23,13.66-2.38,17.96-2.81,2.15-6.22,2.96-9.47,2.53-1.69-.22-3.33-.79-4.82-1.67h0c-10.4-6.14-17.46-6.89-17.46-6.89,0,0,7.85-11.31,17.76-15.32Z"/>
    <path class="cls-4" d="M68.56,88.57c3.62-1.19,7.49-.68,10.62,1.22.01,0,.02.01.03.02h0c1.98,1.21,3.67,2.97,4.79,5.2,3.16,6.33.59,14.02-5.73,17.18-3.16,1.58-6.67,1.73-9.78.69-1.62-.54-3.12-1.41-4.42-2.55h0c-9.05-8-15.84-10.07-15.84-10.07,0,0,9.85-9.62,20.33-11.69Z"/>
    <path class="cls-4" d="M38.85,48.88c-1.67-3.43-4.74-5.85-8.28-6.77-.01,0-.02,0-.04-.01h0c-2.25-.58-4.68-.56-7.06.19-6.74,2.14-10.47,9.34-8.33,16.09,1.07,3.37,3.41,5.99,6.32,7.5,1.51.78,3.18,1.26,4.91,1.39h0c12.05.92,18.26,4.35,18.26,4.35,0,0,.04-13.77-5.78-22.73Z"/>
    <path class="cls-4" d="M26.07,73.4c-2.02-3.23-5.33-5.31-8.95-5.85-.01,0-.02,0-.04,0h0c-2.3-.33-4.72-.06-7,.94-6.48,2.84-9.42,10.4-6.58,16.88,1.42,3.24,4.02,5.59,7.08,6.78,1.59.62,3.3.91,5.03.86h0c12.07-.36,18.62,2.38,18.62,2.38,0,0-1.42-13.69-8.16-21.99Z"/>
    <circle class="cls-1" cx="73.09" cy="13.81" r="13.81"/>
    <path class="cls-4" d="M42.9,67.89s4.45,7.27,6,11.57l-2.05,4.24s-3.12-13.96-3.95-15.81Z"/>
    <path class="cls-4" d="M50.1,79.63s7.14-4.45,12.42-4.61c-5.09,2.31-13.25,6.46-14.3,8.68s1.88-4.07,1.88-4.07Z"/>
    <path class="cls-4" d="M37.6,102.94s6.79-5.2,15.6-2.59c0,0-11.35-.53-17.14,5.99l1.54-3.41Z"/>
    <path class="cls-4" d="M32.89,93.46s3.54,3.14,4.27,7.17l-2.13,4.81s.69-9.28-2.13-11.97Z"/>
    <line class="cls-2" x1="66.52" y1="32.59" x2="56.8" y2="24.16"/>
    <line class="cls-2" x1="65.58" y1="39.42" x2="73.79" y2="39.12"/>
    <circle class="cls-5" cx="47.23" cy="18.92" r="12.22"/>
    <line class="cls-2" x1="62.53" y1="44.74" x2="60.56" y2="43.5"/>
    <circle class="cls-1" cx="48.9" cy="37.97" r="13.81"/>
    <circle class="cls-6" cx="89.23" cy="39.15" r="16.13"/>
    <circle class="cls-5" cx="69.35" cy="53.36" r="10.55"/>
  </g>
</svg>