<?xml version="1.0" encoding="UTF-8"?>
<svg xmlns="http://www.w3.org/2000/svg" xmlns:xlink="http://www.w3.org/1999/xlink" version="1.1" viewBox="0 0 212.3 259.2">
  <defs>
    <style>
      .cls-1, .cls-2 {
        isolation: isolate;
      }

      .cls-2 {
        fill: #553d38;
        font-family: KafuNagomiStd-B-83pv-RKSJ-H, 'FOT-KafuNagomi Std';
        font-size: 17.9px;
      }

      .cls-3 {
        fill: #fff;
      }

      .cls-4 {
        fill: #859eab;
      }
    </style>
  </defs>
  <!-- Generator: Adobe Illustrator 28.6.0, SVG Export Plug-In . SVG Version: 1.2.0 Build 709)  -->
  <g>
    <g id="_レイヤー_2">
      <g>
        <image class="cls-1" width="357" height="1079" transform="translate(49.9) scale(.2)" xlink:href="board-1.png"/>
        <image class="cls-1" width="855" height="482" transform="translate(18.8 18.9) scale(.2)" xlink:href="board-2.png"/>
        <g class="cls-1">
          <text class="cls-2" transform="translate(77.4 84.1)"><tspan x="0" y="0">記事一覧</tspan></text>
        </g>
        <ellipse class="cls-3" cx="82.7" cy="50.1" rx="11.8" ry="4.5"/>
        <ellipse class="cls-3" cx="100" cy="50.1" rx="11.8" ry="4.5"/>
        <ellipse class="cls-3" cx="118" cy="50.1" rx="11.8" ry="4.5"/>
        <ellipse class="cls-3" cx="133.9" cy="50.1" rx="11.8" ry="4.5"/>
        <ellipse class="cls-3" cx="149.4" cy="50.1" rx="11.8" ry="4.5"/>
        <ellipse class="cls-3" cx="164.2" cy="54.4" rx="2.2" ry="6.2" transform="translate(19.4 149) rotate(-51.5)"/>
        <ellipse class="cls-3" cx="172.9" cy="61.3" rx="2.2" ry="6.2" transform="translate(17.3 158.4) rotate(-51.5)"/>
        <ellipse class="cls-3" cx="179.6" cy="67.6" rx="2" ry="7.5" transform="translate(14.9 166.1) rotate(-51.5)"/>
        <ellipse class="cls-3" cx="65.8" cy="50.1" rx="11.8" ry="4.5"/>
        <ellipse class="cls-3" cx="92.6" cy="31.5" rx="7.4" ry="4.6"/>
        <path class="cls-3" d="M54,50.1s-.2,2.4.9,4.6c6.2.2,105.8,0,105.8,0,0,0,1-3,.6-4.6"/>
        <path class="cls-3" d="M100.1,31.5c.1.8-.3,4.5-.3,4.5h-13.9c-1-2.3-.6-5.1-.6-5.1"/>
        <path class="cls-3" d="M180.4,66.4s.3,1.8,0,4.2l-20.6-16.6-.6-3.8,21.1,16.2h0Z"/>
        <path class="cls-3" d="M185.6,71.6s.7,2.5-.3,3.1c-1.4-1.2-5.7-4.5-5.7-4.5"/>
        <path class="cls-4" d="M116.6,215.6l7.3-1.2s-.6-32.3,12.9-40.4c-15.6,8-20.3,30.2-20.1,41.6Z"/>
        <path class="cls-4" d="M104.9,216.9l14.2-.8c-1.6,3.6-6.5-25.9,1.2-47.4-13.9,22.1-12.8,34-15.4,48.2h0Z"/>
        <path class="cls-4" d="M79,210.7l-12,2.4c2,2.5.2-21.6-10.5-36.9,16,14.4,17.4,23.9,22.5,34.5Z"/>
        <path class="cls-4" d="M85.2,216.4l-13.3-.6c1.5,2.9,5.7-20.9-1.8-38.3,13.4,17.8,12.5,27.4,15.2,38.9h0Z"/>
        <path class="cls-4" d="M69.4,210.5l-13.4,3.6c2.2,1.6.9-16.2-10.6-26.1,17.3,8.4,18.6,15.3,24,22.5h0Z"/>
        <path class="cls-4" d="M115.2,219.2l9.3,1.4s10.9-30.7,30.2-33.5c-21.8,2-35.6,21.3-39.4,32.1h0Z"/>
        <ellipse class="cls-3" cx="91.2" cy="222.8" rx="38.7" ry="18.5"/>
        <ellipse class="cls-3" cx="38.7" cy="222.8" rx="38.6" ry="18.5"/>
        <ellipse class="cls-3" cx="132.4" cy="222.8" rx="38.6" ry="18.5"/>
        <ellipse class="cls-3" cx="173.6" cy="222.8" rx="38.7" ry="18.5"/>
        <path class="cls-3" d="M0,222.8s-5.2,35.7,106.2,34.8c111.3-.8,106-34.8,106-34.8"/>
      </g>
    </g>
  </g>
</svg>