<?xml version="1.0" encoding="UTF-8"?>
<svg id="_レイヤー_2" data-name="レイヤー_2" xmlns="http://www.w3.org/2000/svg" viewBox="0 0 322.9 7.85">
  <defs>
    <style>
      .cls-1 {
        fill: none;
        stroke: #b1d3d3;
        stroke-miterlimit: 10;
      }

      .cls-2 {
        fill: #b1d3d3;
      }
    </style>
  </defs>
  <g id="_レイヤー_1-2" data-name="レイヤー_1">
    <line class="cls-1" x1="322.9" y1="4.25" x2="0" y2="3.49"/>
    <circle class="cls-2" cx="312.41" cy="4.13" r="3.72"/>
    <circle class="cls-2" cx="297.8" cy="4.13" r="3.72"/>
    <circle class="cls-2" cx="283.18" cy="4.13" r="3.72"/>
    <circle class="cls-2" cx="268.56" cy="4.13" r="3.72"/>
    <circle class="cls-2" cx="253.45" cy="4.11" r="3.72"/>
    <circle class="cls-2" cx="238.34" cy="4.08" r="3.72"/>
    <circle class="cls-2" cx="223.23" cy="4.06" r="3.72"/>
    <circle class="cls-2" cx="208.13" cy="4.03" r="3.72"/>
    <circle class="cls-2" cx="193.02" cy="4.01" r="3.72"/>
    <circle class="cls-2" cx="177.91" cy="3.99" r="3.72"/>
    <circle class="cls-2" cx="162.81" cy="3.96" r="3.72"/>
    <circle class="cls-2" cx="147.7" cy="3.94" r="3.72"/>
    <circle class="cls-2" cx="132.59" cy="3.92" r="3.72"/>
    <circle class="cls-2" cx="117.48" cy="3.89" r="3.72"/>
    <circle class="cls-2" cx="102.38" cy="3.87" r="3.72"/>
    <circle class="cls-2" cx="87.27" cy="3.84" r="3.72"/>
    <circle class="cls-2" cx="72.16" cy="3.82" r="3.72"/>
    <circle class="cls-2" cx="57.05" cy="3.8" r="3.72"/>
    <circle class="cls-2" cx="41.95" cy="3.77" r="3.72"/>
    <circle class="cls-2" cx="26.84" cy="3.75" r="3.72"/>
    <circle class="cls-2" cx="11.73" cy="3.72" r="3.72"/>
  </g>
</svg>