<?xml version="1.0" encoding="UTF-8"?>
<svg id="_レイヤー_2" data-name="レイヤー_2" xmlns="http://www.w3.org/2000/svg" viewBox="0 0 367.12 240.13">
  <defs>
    <style>
      .cls-1 {
        fill: #543c37;
        font-family: KafuNagomiStd-B-83pv-RKSJ-H, 'FOT-KafuNagomi Std';
        font-size: 24px;
      }

      .cls-2 {
        fill: #9d857f;
      }

      .cls-3 {
        fill: #d0cec4;
      }

      .cls-4 {
        fill: #656562;
      }

      .cls-5 {
        fill: #fff;
      }

      .cls-6 {
        fill: #cb8d81;
      }

      .cls-7 {
        fill: #cbe5e3;
      }
    </style>
  </defs>
  <g id="_レイヤー_2-2" data-name="レイヤー_2">
    <path class="cls-7" d="M15.09,106.42c15.7-24.84,18.96-58.16,45.6-78.55C87.33,7.48,137.34,0,183.98,0c36.61,0,85.54,4.09,113.2,16.56,42.81,19.3,37.24,59.29,55.68,89.86,45.8,75.93-20.91,99.12-168.88,106.42-143.59,7.08-217.97-28.75-168.88-106.42Z"/>
    <polygon class="cls-3" points="144.69 136.65 183.31 101.06 221.92 136.65 221.92 177.56 144.69 177.56 144.69 136.65"/>
    <text class="cls-1" transform="translate(123.41 64.53)"><tspan x="0" y="0">ブログ日和</tspan></text>
  </g>
  <g id="_レイヤー_1-2" data-name="レイヤー_1">
    <g>
      <path class="cls-5" d="M328.16,126.82c8.62,14.23,23.78,27.48,23.78,27.48,0,0-15.91-.5-22.16-1.41s-17.54-4.35-17.54-4.35c0,0-11.37,3.4-18.95,4.5s-20.75,1.26-20.75,1.26c0,0,13.37-14.06,22.84-27.48,16.11.15,20.78-.16,32.78,0Z"/>
      <path class="cls-5" d="M326.42,105.47c7.67,14.23,21.17,27.48,21.17,27.48,0,0-14.16-.5-19.73-1.41s-15.62-4.35-15.62-4.35c0,0-10.13,3.4-16.87,4.5-6.74,1.1-18.48,1.26-18.48,1.26,0,0,11.9-14.06,20.33-27.48,14.35.15,18.5-.16,29.18,0Z"/>
      <path class="cls-5" d="M325.17,79.04c5.75,12.44,17.48,32.34,17.48,32.34,0,0-12.19-.5-16.98-1.41-4.79-.91-13.44-4.35-13.44-4.35,0,0-8.71,3.4-14.52,4.5s-15.9,1.26-15.9,1.26c0,0,12.33-21.23,17.16-30.97,4.83-9.74,13.26-37.5,13.26-41.22s7.19,27.42,12.93,39.85Z"/>
    </g>
    <path class="cls-2" d="M312.24,84.08c1.98,0,1.98,93.48,1.98,93.48h-3.96s0-93.48,1.98-93.48Z"/>
    <rect class="cls-3" x="201.65" y="105.06" width="14.6" height="25.18"/>
    <g>
      <path class="cls-5" d="M274.99,135.61c5.91,9.76,16.31,18.85,16.31,18.85,0,0-10.91-.35-15.2-.97s-12.03-2.98-12.03-2.98c0,0-7.8,2.33-13,3.08s-14.24.86-14.24.86c0,0,9.17-9.64,15.67-18.85,11.05.1,14.25-.11,22.49,0Z"/>
      <path class="cls-5" d="M273.8,120.97c5.26,9.76,14.52,18.85,14.52,18.85,0,0-9.71-.35-13.53-.97s-10.71-2.98-10.71-2.98c0,0-6.95,2.33-11.57,3.08s-12.67.86-12.67.86c0,0,8.16-9.64,13.95-18.85,9.84.1,12.69-.11,20.02,0Z"/>
      <path class="cls-5" d="M272.94,102.84c3.94,8.53,11.99,22.18,11.99,22.18,0,0-8.36-.35-11.64-.97-3.28-.62-9.22-2.98-9.22-2.98,0,0-5.98,2.33-9.96,3.08-3.98.75-10.91.86-10.91.86,0,0,8.46-14.56,11.77-21.24s9.1-25.73,9.1-28.28,4.93,18.81,8.87,27.34Z"/>
    </g>
    <path class="cls-2" d="M264.07,105.06c1.55,0,1.55,73.2,1.55,73.2h-3.1s0-73.2,1.55-73.2Z"/>
    <path class="cls-5" d="M38.45,129.04c-8.62,14.23-23.78,27.48-23.78,27.48,0,0,15.91-.5,22.16-1.41s17.54-4.35,17.54-4.35c0,0,11.37,3.4,18.95,4.5,7.57,1.1,20.75,1.26,20.75,1.26,0,0-13.37-14.06-22.84-27.48-16.11.15-20.78-.16-32.78,0Z"/>
    <path class="cls-5" d="M40.2,107.68c-7.67,14.23-21.17,27.48-21.17,27.48,0,0,14.16-.5,19.73-1.41,5.56-.91,15.62-4.35,15.62-4.35,0,0,10.13,3.4,16.87,4.5,6.74,1.1,18.48,1.26,18.48,1.26,0,0-11.9-14.06-20.33-27.48-14.35.15-18.5-.16-29.18,0Z"/>
    <path class="cls-5" d="M41.44,81.26c-5.75,12.44-17.48,32.34-17.48,32.34,0,0,12.19-.5,16.98-1.41s13.44-4.35,13.44-4.35c0,0,8.71,3.4,14.52,4.5,5.8,1.1,15.9,1.26,15.9,1.26,0,0-12.33-21.23-17.16-30.97s-13.26-37.5-13.26-41.22-7.19,27.42-12.93,39.85Z"/>
    <path class="cls-2" d="M54.38,86.29c-1.98,0-1.98,93.48-1.98,93.48h3.96s0-93.48-1.98-93.48Z"/>
    <g>
      <path class="cls-5" d="M91.62,137.83c-5.91,9.76-16.31,18.85-16.31,18.85,0,0,10.91-.35,15.2-.97s12.03-2.98,12.03-2.98c0,0,7.8,2.33,13,3.08s14.24.86,14.24.86c0,0-9.17-9.64-15.67-18.85-11.05.1-14.25-.11-22.49,0Z"/>
      <path class="cls-5" d="M92.82,123.18c-5.26,9.76-14.52,18.85-14.52,18.85,0,0,9.71-.35,13.53-.97s10.71-2.98,10.71-2.98c0,0,6.95,2.33,11.57,3.08s12.67.86,12.67.86c0,0-8.16-9.64-13.95-18.85-9.84.1-12.69-.11-20.02,0Z"/>
      <path class="cls-5" d="M93.67,105.05c-3.94,8.53-11.99,22.18-11.99,22.18,0,0,8.36-.35,11.64-.97s9.22-2.98,9.22-2.98c0,0,5.98,2.33,9.96,3.08,3.98.75,10.91.86,10.91.86,0,0-8.46-14.56-11.77-21.24s-9.1-25.73-9.1-28.28-4.93,18.81-8.87,27.34Z"/>
    </g>
    <path class="cls-2" d="M102.54,107.27c-1.55,0-1.55,73.2-1.55,73.2h3.1s0-73.2-1.55-73.2Z"/>
    <polygon class="cls-5" points="228.44 138.56 183.73 97.51 183.73 97.51 183.31 97.11 182.89 97.5 182.89 97.5 138.17 138.55 140.76 140.43 183.3 101.37 225.85 140.43 228.44 138.56"/>
    <rect class="cls-2" x="155.05" y="143.47" width="13.14" height="14.72"/>
    <rect class="cls-2" x="199.02" y="143.47" width="13.14" height="14.72"/>
    <rect class="cls-2" x="174.95" y="145.02" width="16.72" height="29.86"/>
    <g>
      <ellipse class="cls-5" cx="264.07" cy="188.45" rx="29.73" ry="16.1"/>
      <ellipse class="cls-5" cx="312.24" cy="181.12" rx="29.73" ry="16.1"/>
      <path class="cls-5" d="M235.62,183.77c6.82-11.69,19.98-7.36,48.18-7.36s43.2-12.99,53.36-4.06c20.47,17.98,3.87,51.89-46.27,55.33-38.72,2.65-66.41-24.81-55.28-43.91Z"/>
      <ellipse class="cls-5" cx="102.54" cy="190.66" rx="29.73" ry="16.1"/>
      <ellipse class="cls-5" cx="54.38" cy="183.34" rx="29.73" ry="16.1"/>
      <path class="cls-5" d="M130.99,185.98c-6.82-11.69-19.98-7.36-48.18-7.36s-43.2-12.99-53.36-4.06c-20.47,17.98-3.87,51.89,46.27,55.33,38.72,2.65,66.41-24.81,55.28-43.91Z"/>
      <path class="cls-5" d="M290.9,227.67s-100.71,26.5-215.18,2.21c14-23.13,124.32-65.23,215.18-2.21Z"/>
      <ellipse class="cls-5" cx="183.31" cy="199.34" rx="80.04" ry="26.99"/>
    </g>
    <rect class="cls-7" x="157.19" y="145.43" width="8.85" height="10.81"/>
    <rect class="cls-7" x="201.2" y="145.38" width="8.85" height="10.81"/>
    <rect class="cls-2" x="160.95" y="144.92" width="1.34" height="11.82"/>
    <rect class="cls-2" x="204.95" y="144.87" width="1.34" height="11.82"/>
    <rect class="cls-2" x="156.19" y="150.37" width="10.87" height="1.28"/>
    <rect class="cls-2" x="199.52" y="150.37" width="10.87" height="1.28"/>
    <rect class="cls-6" x="177.75" y="147.76" width="11.27" height="24.59"/>
    <circle class="cls-4" cx="187.24" cy="160.05" r="1.09"/>
    <rect class="cls-5" x="200.44" y="102.37" width="17.37" height="2.69"/>
  </g>
</svg>