<?xml version="1.0" encoding="UTF-8"?>
<svg id="_レイヤー_2" data-name="レイヤー_2" xmlns="http://www.w3.org/2000/svg" viewBox="0 0 299.41 134.94">
  <defs>
    <style>
      .cls-1 {
        fill: #0c4b6d;
      }

      .cls-2 {
        fill: #d5d7ab;
      }

      .cls-3 {
        fill: #fff;
      }
    </style>
  </defs>
  <g id="_レイヤー_3" data-name="レイヤー_3">
    <g>
      <path class="cls-1" d="M1.59,23.08C3.82,10.72,8.6,0,10.83,0c2.89,0,7.25,11.85,9.24,23.08,1.99,11.23-4.14,23.08-9.24,23.08S-.65,35.44,1.59,23.08Z"/>
      <path class="cls-2" d="M12.84,48.43c-.53-1.29-.91-4.18-1.19-7.76l-.16-6.27-.18-4.43-.1-15.77h-.77l-.16,15.77h0l-.18,4.43-.16,6.27c-.28,3.58-.66,6.48-1.19,7.76-1.94,4.56-3.24,5.43-3.24,5.43h10.57s-1.3-.87-3.24-5.43Z"/>
    </g>
    <polygon class="cls-2" points="11.31 21.08 14.93 17.38 10.79 19.79 11.31 21.08"/>
    <polygon class="cls-2" points="11.31 31.98 14.93 28.27 10.79 30.68 11.31 31.98"/>
    <polygon class="cls-2" points="10.27 27.73 6.65 24.02 10.79 26.43 10.27 27.73"/>
    <polygon class="cls-2" points="10.13 37.74 5.5 33.64 10.79 36.31 10.13 37.74"/>
    <g>
      <path class="cls-1" d="M21.43,23.08C23.67,10.72,28.44,0,30.67,0c2.89,0,7.25,11.85,9.24,23.08,1.99,11.23-4.14,23.08-9.24,23.08s-11.48-10.72-9.24-23.08Z"/>
      <path class="cls-2" d="M32.68,48.43c-.53-1.29-.91-4.18-1.19-7.76l-.16-6.27-.18-4.43-.1-15.77h-.77l-.16,15.77h0l-.18,4.43-.16,6.27c-.28,3.58-.66,6.48-1.19,7.76-1.94,4.56-3.24,5.43-3.24,5.43h10.57s-1.3-.87-3.24-5.43Z"/>
    </g>
    <polygon class="cls-2" points="31.15 21.08 34.77 17.38 30.63 19.79 31.15 21.08"/>
    <polygon class="cls-2" points="31.15 31.98 34.77 28.27 30.63 30.68 31.15 31.98"/>
    <polygon class="cls-2" points="30.12 27.73 26.49 24.02 30.63 26.43 30.12 27.73"/>
    <polygon class="cls-2" points="29.97 37.74 25.35 33.64 30.63 36.31 29.97 37.74"/>
    <g>
      <path class="cls-1" d="M41.28,23.08C43.51,10.72,48.29,0,50.52,0c2.89,0,7.25,11.85,9.24,23.08,1.99,11.23-4.14,23.08-9.24,23.08s-11.48-10.72-9.24-23.08Z"/>
      <path class="cls-2" d="M52.53,48.43c-.53-1.29-.91-4.18-1.19-7.76l-.16-6.27-.18-4.43-.1-15.77h-.77l-.16,15.77h0l-.18,4.43-.16,6.27c-.28,3.58-.66,6.48-1.19,7.76-1.94,4.56-3.24,5.43-3.24,5.43h10.57s-1.3-.87-3.24-5.43Z"/>
    </g>
    <polygon class="cls-2" points="51 21.08 54.62 17.38 50.48 19.79 51 21.08"/>
    <polygon class="cls-2" points="51 31.98 54.62 28.27 50.48 30.68 51 31.98"/>
    <polygon class="cls-2" points="49.96 27.73 46.34 24.02 50.48 26.43 49.96 27.73"/>
    <polygon class="cls-2" points="49.82 37.74 45.19 33.64 50.48 36.31 49.82 37.74"/>
    <g>
      <path class="cls-1" d="M61.12,23.08c2.24-12.36,7.01-23.08,9.24-23.08,2.89,0,7.25,11.85,9.24,23.08,1.99,11.23-4.14,23.08-9.24,23.08s-11.48-10.72-9.24-23.08Z"/>
      <path class="cls-2" d="M72.37,48.43c-.53-1.29-.91-4.18-1.19-7.76l-.16-6.27-.18-4.43-.1-15.77h-.77l-.16,15.77h0l-.18,4.43-.16,6.27c-.28,3.58-.66,6.48-1.19,7.76-1.94,4.56-3.24,5.43-3.24,5.43h10.57s-1.3-.87-3.24-5.43Z"/>
    </g>
    <polygon class="cls-2" points="70.84 21.08 74.46 17.38 70.32 19.79 70.84 21.08"/>
    <polygon class="cls-2" points="70.84 31.98 74.46 28.27 70.32 30.68 70.84 31.98"/>
    <polygon class="cls-2" points="69.81 27.73 66.18 24.02 70.32 26.43 69.81 27.73"/>
    <polygon class="cls-2" points="69.66 37.74 65.04 33.64 70.32 36.31 69.66 37.74"/>
    <g>
      <path class="cls-1" d="M80.97,23.08c2.24-12.36,7.01-23.08,9.24-23.08,2.89,0,7.25,11.85,9.24,23.08s-4.14,23.08-9.24,23.08-11.48-10.72-9.24-23.08Z"/>
      <path class="cls-2" d="M92.22,48.43c-.53-1.29-.91-4.18-1.19-7.76l-.16-6.27-.18-4.43-.1-15.77h-.77l-.16,15.77h0l-.18,4.43-.16,6.27c-.28,3.58-.66,6.48-1.19,7.76-1.94,4.56-3.24,5.43-3.24,5.43h10.57s-1.3-.87-3.24-5.43Z"/>
    </g>
    <polygon class="cls-2" points="90.69 21.08 94.31 17.38 90.17 19.79 90.69 21.08"/>
    <polygon class="cls-2" points="90.69 31.98 94.31 28.27 90.17 30.68 90.69 31.98"/>
    <polygon class="cls-2" points="89.65 27.73 86.03 24.02 90.17 26.43 89.65 27.73"/>
    <polygon class="cls-2" points="89.51 37.74 84.88 33.64 90.17 36.31 89.51 37.74"/>
    <g>
      <path class="cls-1" d="M100.81,23.08c2.24-12.36,7.01-23.08,9.24-23.08,2.89,0,7.25,11.85,9.24,23.08s-4.14,23.08-9.24,23.08-11.48-10.72-9.24-23.08Z"/>
      <path class="cls-2" d="M112.06,48.43c-.53-1.29-.91-4.18-1.19-7.76l-.16-6.27-.18-4.43-.1-15.77h-.77l-.16,15.77h0l-.18,4.43-.16,6.27c-.28,3.58-.66,6.48-1.19,7.76-1.94,4.56-3.24,5.43-3.24,5.43h10.57s-1.3-.87-3.24-5.43Z"/>
    </g>
    <polygon class="cls-2" points="110.53 21.08 114.15 17.38 110.01 19.79 110.53 21.08"/>
    <polygon class="cls-2" points="110.53 31.98 114.15 28.27 110.01 30.68 110.53 31.98"/>
    <polygon class="cls-2" points="109.5 27.73 105.87 24.02 110.01 26.43 109.5 27.73"/>
    <polygon class="cls-2" points="109.35 37.74 104.73 33.64 110.01 36.31 109.35 37.74"/>
    <g>
      <path class="cls-1" d="M120.66,23.08c2.24-12.36,7.01-23.08,9.24-23.08,2.89,0,7.25,11.85,9.24,23.08s-4.14,23.08-9.24,23.08-11.48-10.72-9.24-23.08Z"/>
      <path class="cls-2" d="M131.91,48.43c-.53-1.29-.91-4.18-1.19-7.76l-.16-6.27-.18-4.43-.1-15.77h-.77l-.16,15.77h0l-.18,4.43-.16,6.27c-.28,3.58-.66,6.48-1.19,7.76-1.94,4.56-3.24,5.43-3.24,5.43h10.57s-1.3-.87-3.24-5.43Z"/>
    </g>
    <polygon class="cls-2" points="130.38 21.08 134 17.38 129.86 19.79 130.38 21.08"/>
    <polygon class="cls-2" points="130.38 31.98 134 28.27 129.86 30.68 130.38 31.98"/>
    <polygon class="cls-2" points="129.34 27.73 125.72 24.02 129.86 26.43 129.34 27.73"/>
    <polygon class="cls-2" points="129.2 37.74 124.57 33.64 129.86 36.31 129.2 37.74"/>
    <g>
      <path class="cls-1" d="M140.5,23.08c2.24-12.36,7.01-23.08,9.24-23.08,2.89,0,7.25,11.85,9.24,23.08s-4.14,23.08-9.24,23.08-11.48-10.72-9.24-23.08Z"/>
      <path class="cls-2" d="M151.75,48.43c-.53-1.29-.91-4.18-1.19-7.76l-.16-6.27-.18-4.43-.1-15.77h-.77l-.16,15.77h0l-.18,4.43-.16,6.27c-.28,3.58-.66,6.48-1.19,7.76-1.94,4.56-3.24,5.43-3.24,5.43h10.57s-1.3-.87-3.24-5.43Z"/>
    </g>
    <polygon class="cls-2" points="150.22 21.08 153.84 17.38 149.7 19.79 150.22 21.08"/>
    <polygon class="cls-2" points="150.22 31.98 153.84 28.27 149.7 30.68 150.22 31.98"/>
    <polygon class="cls-2" points="149.19 27.73 145.56 24.02 149.7 26.43 149.19 27.73"/>
    <polygon class="cls-2" points="149.04 37.74 144.42 33.64 149.7 36.31 149.04 37.74"/>
    <g>
      <path class="cls-1" d="M160.35,23.08c2.24-12.36,7.01-23.08,9.24-23.08,2.89,0,7.25,11.85,9.24,23.08s-4.14,23.08-9.24,23.08-11.48-10.72-9.24-23.08Z"/>
      <path class="cls-2" d="M171.6,48.43c-.53-1.29-.91-4.18-1.19-7.76l-.16-6.27-.18-4.43-.1-15.77h-.77l-.16,15.77h0l-.18,4.43-.16,6.27c-.28,3.58-.66,6.48-1.19,7.76-1.94,4.56-3.24,5.43-3.24,5.43h10.57s-1.3-.87-3.24-5.43Z"/>
    </g>
    <polygon class="cls-2" points="170.07 21.08 173.69 17.38 169.55 19.79 170.07 21.08"/>
    <polygon class="cls-2" points="170.07 31.98 173.69 28.27 169.55 30.68 170.07 31.98"/>
    <polygon class="cls-2" points="169.03 27.73 165.41 24.02 169.55 26.43 169.03 27.73"/>
    <polygon class="cls-2" points="168.89 37.74 164.26 33.64 169.55 36.31 168.89 37.74"/>
    <g>
      <path class="cls-1" d="M180.19,23.08c2.24-12.36,7.01-23.08,9.24-23.08,2.89,0,7.25,11.85,9.24,23.08s-4.14,23.08-9.24,23.08-11.48-10.72-9.24-23.08Z"/>
      <path class="cls-2" d="M191.44,48.43c-.53-1.29-.91-4.18-1.19-7.76l-.16-6.27-.18-4.43-.1-15.77h-.77l-.16,15.77h0l-.18,4.43-.16,6.27c-.28,3.58-.66,6.48-1.19,7.76-1.94,4.56-3.24,5.43-3.24,5.43h10.57s-1.3-.87-3.24-5.43Z"/>
    </g>
    <polygon class="cls-2" points="189.91 21.08 193.53 17.38 189.39 19.79 189.91 21.08"/>
    <polygon class="cls-2" points="189.91 31.98 193.53 28.27 189.39 30.68 189.91 31.98"/>
    <polygon class="cls-2" points="188.88 27.73 185.25 24.02 189.39 26.43 188.88 27.73"/>
    <polygon class="cls-2" points="188.73 37.74 184.11 33.64 189.39 36.31 188.73 37.74"/>
    <g>
      <path class="cls-1" d="M200.04,23.08c2.24-12.36,7.01-23.08,9.24-23.08,2.89,0,7.25,11.85,9.24,23.08s-4.14,23.08-9.24,23.08-11.48-10.72-9.24-23.08Z"/>
      <path class="cls-2" d="M211.29,48.43c-.53-1.29-.91-4.18-1.19-7.76l-.16-6.27-.18-4.43-.1-15.77h-.77l-.16,15.77h0l-.18,4.43-.16,6.27c-.28,3.58-.66,6.48-1.19,7.76-1.94,4.56-3.24,5.43-3.24,5.43h10.57s-1.3-.87-3.24-5.43Z"/>
    </g>
    <polygon class="cls-2" points="209.76 21.08 213.38 17.38 209.24 19.79 209.76 21.08"/>
    <polygon class="cls-2" points="209.76 31.98 213.38 28.27 209.24 30.68 209.76 31.98"/>
    <polygon class="cls-2" points="208.72 27.73 205.1 24.02 209.24 26.43 208.72 27.73"/>
    <polygon class="cls-2" points="208.58 37.74 203.95 33.64 209.24 36.31 208.58 37.74"/>
    <g>
      <path class="cls-1" d="M219.88,23.08c2.24-12.36,7.01-23.08,9.24-23.08,2.89,0,7.25,11.85,9.24,23.08s-4.14,23.08-9.24,23.08-11.48-10.72-9.24-23.08Z"/>
      <path class="cls-2" d="M231.13,48.43c-.53-1.29-.91-4.18-1.19-7.76l-.16-6.27-.18-4.43-.1-15.77h-.77l-.16,15.77h0l-.18,4.43-.16,6.27c-.28,3.58-.66,6.48-1.19,7.76-1.94,4.56-3.24,5.43-3.24,5.43h10.57s-1.3-.87-3.24-5.43Z"/>
    </g>
    <polygon class="cls-2" points="229.6 21.08 233.22 17.38 229.08 19.79 229.6 21.08"/>
    <polygon class="cls-2" points="229.6 31.98 233.22 28.27 229.08 30.68 229.6 31.98"/>
    <polygon class="cls-2" points="228.57 27.73 224.94 24.02 229.08 26.43 228.57 27.73"/>
    <polygon class="cls-2" points="228.42 37.74 223.8 33.64 229.08 36.31 228.42 37.74"/>
    <g>
      <path class="cls-1" d="M239.73,23.08c2.24-12.36,7.01-23.08,9.24-23.08,2.89,0,7.25,11.85,9.24,23.08s-4.14,23.08-9.24,23.08-11.48-10.72-9.24-23.08Z"/>
      <path class="cls-2" d="M250.98,48.43c-.53-1.29-.91-4.18-1.19-7.76l-.16-6.27-.18-4.43-.1-15.77h-.77l-.16,15.77h0l-.18,4.43-.16,6.27c-.28,3.58-.66,6.48-1.19,7.76-1.94,4.56-3.24,5.43-3.24,5.43h10.57s-1.3-.87-3.24-5.43Z"/>
    </g>
    <polygon class="cls-2" points="249.45 21.08 253.07 17.38 248.93 19.79 249.45 21.08"/>
    <polygon class="cls-2" points="249.45 31.98 253.07 28.27 248.93 30.68 249.45 31.98"/>
    <polygon class="cls-2" points="248.41 27.73 244.79 24.02 248.93 26.43 248.41 27.73"/>
    <polygon class="cls-2" points="248.27 37.74 243.64 33.64 248.93 36.31 248.27 37.74"/>
    <g>
      <path class="cls-1" d="M259.57,23.08c2.24-12.36,7.01-23.08,9.24-23.08,2.89,0,7.25,11.85,9.24,23.08s-4.14,23.08-9.24,23.08-11.48-10.72-9.24-23.08Z"/>
      <path class="cls-2" d="M270.82,48.43c-.53-1.29-.91-4.18-1.19-7.76l-.16-6.27-.18-4.43-.1-15.77h-.77l-.16,15.77h0l-.18,4.43-.16,6.27c-.28,3.58-.66,6.48-1.19,7.76-1.94,4.56-3.24,5.43-3.24,5.43h10.57s-1.3-.87-3.24-5.43Z"/>
    </g>
    <polygon class="cls-2" points="269.29 21.08 272.91 17.38 268.77 19.79 269.29 21.08"/>
    <polygon class="cls-2" points="269.29 31.98 272.91 28.27 268.77 30.68 269.29 31.98"/>
    <polygon class="cls-2" points="268.26 27.73 264.63 24.02 268.77 26.43 268.26 27.73"/>
    <polygon class="cls-2" points="268.11 37.74 263.49 33.64 268.77 36.31 268.11 37.74"/>
    <g>
      <path class="cls-1" d="M279.42,23.08c2.24-12.36,7.01-23.08,9.24-23.08,2.89,0,7.25,11.85,9.24,23.08s-4.14,23.08-9.24,23.08-11.48-10.72-9.24-23.08Z"/>
      <path class="cls-2" d="M290.67,48.43c-.53-1.29-.91-4.18-1.19-7.76l-.16-6.27-.18-4.43-.1-15.77h-.77l-.16,15.77h0l-.18,4.43-.16,6.27c-.28,3.58-.66,6.48-1.19,7.76-1.94,4.56-3.24,5.43-3.24,5.43h10.57s-1.3-.87-3.24-5.43Z"/>
    </g>
    <polygon class="cls-2" points="289.14 21.08 292.76 17.38 288.62 19.79 289.14 21.08"/>
    <polygon class="cls-2" points="289.14 31.98 292.76 28.27 288.62 30.68 289.14 31.98"/>
    <polygon class="cls-2" points="288.1 27.73 284.48 24.02 288.62 26.43 288.1 27.73"/>
    <polygon class="cls-2" points="287.96 37.74 283.33 33.64 288.62 36.31 287.96 37.74"/>
    <path class="cls-3" d="M286.75,52.8c-3.6,0-6.84.36-9.15.94-2.31-.58-5.55-.94-9.15-.94s-6.67.34-8.96.89c-2.29-.55-5.46-.89-8.96-.89-.06,0-.12,0-.19,0-.06,0-.12,0-.19,0-3.5,0-6.67.34-8.96.89-2.29-.55-5.46-.89-8.96-.89-.06,0-.12,0-.19,0-.06,0-.12,0-.19,0-3.5,0-6.67.34-8.96.89-2.29-.55-5.46-.89-8.96-.89-.06,0-.12,0-.19,0-.06,0-.12,0-.19,0-3.5,0-6.67.34-8.96.89-2.29-.55-5.46-.89-8.96-.89-.06,0-.12,0-.19,0-.06,0-.12,0-.19,0-3.5,0-6.67.34-8.96.89-2.29-.55-5.46-.89-8.96-.89-.06,0-.12,0-.19,0-.06,0-.12,0-.19,0-3.5,0-6.67.34-8.96.89-2.29-.55-5.46-.89-8.96-.89-.06,0-.12,0-.19,0-.06,0-.12,0-.19,0-3.5,0-6.67.34-8.96.89-2.29-.55-5.46-.89-8.96-.89-.06,0-.12,0-.19,0-.06,0-.12,0-.19,0-3.5,0-6.67.34-8.96.89-2.29-.55-5.46-.89-8.96-.89-.06,0-.12,0-.19,0-.06,0-.12,0-.19,0-3.5,0-6.67.34-8.96.89-2.29-.55-5.46-.89-8.96-.89-.06,0-.12,0-.19,0-.06,0-.12,0-.19,0-3.5,0-6.67.34-8.96.89-2.29-.55-5.46-.89-8.96-.89-.06,0-.12,0-.19,0-.06,0-.12,0-.19,0-3.5,0-6.67.34-8.96.89-2.29-.55-5.46-.89-8.96-.89-.06,0-.12,0-.19,0-.06,0-.12,0-.19,0-3.5,0-6.67.34-8.96.89-2.29-.55-5.46-.89-8.96-.89-.06,0-.12,0-.19,0-.06,0-.12,0-.19,0-3.5,0-6.67.34-8.96.89-2.29-.55-5.46-.89-8.96-.89-.06,0-.12,0-.19,0-.06,0-.12,0-.19,0-3.5,0-6.67.34-8.96.89-2.29-.55-5.46-.89-8.96-.89-6.99,0-12.66,1.36-12.66,3.04v79.1h299.41V55.84c0-1.68-5.67-3.04-12.66-3.04Z"/>
  </g>
</svg>