<?xml version="1.0" encoding="UTF-8"?>
<svg id="_レイヤー_2" data-name="レイヤー_2" xmlns="http://www.w3.org/2000/svg" viewBox="0 0 19.32 53.86">
  <defs>
    <style>
      .cls-1 {
        fill: #0c4b6d;
      }

      .cls-2 {
        fill: #d5d7ab;
      }
    </style>
  </defs>
  <g id="_レイヤー_3" data-name="レイヤー_3">
    <g>
      <g>
        <path class="cls-1" d="M.46,23.08C2.69,10.72,7.47,0,9.7,0c2.89,0,7.25,11.85,9.24,23.08,1.99,11.23-4.14,23.08-9.24,23.08S-1.78,35.44.46,23.08Z"/>
        <path class="cls-2" d="M11.71,48.43c-.53-1.29-.91-4.18-1.19-7.76l-.16-6.27-.18-4.43-.1-15.77h-.77l-.16,15.77h0l-.18,4.43-.16,6.27c-.28,3.58-.66,6.48-1.19,7.76-1.94,4.56-3.24,5.43-3.24,5.43h10.57s-1.3-.87-3.24-5.43Z"/>
      </g>
      <polygon class="cls-2" points="10.18 21.08 13.8 17.38 9.66 19.79 10.18 21.08"/>
      <polygon class="cls-2" points="10.18 31.98 13.8 28.27 9.66 30.68 10.18 31.98"/>
      <polygon class="cls-2" points="9.14 27.73 5.52 24.02 9.66 26.43 9.14 27.73"/>
      <polygon class="cls-2" points="9 37.74 4.38 33.64 9.66 36.31 9 37.74"/>
    </g>
  </g>
</svg>