<?xml version="1.0" encoding="UTF-8"?>
<svg xmlns="http://www.w3.org/2000/svg" version="1.1" viewBox="0 0 250 70.7">
  <defs>
    <style>
      .cls-1 {
        fill: #f2f9fb;
      }

      .cls-2 {
        fill: #c9e1df;
      }
    </style>
  </defs>
  <!-- Generator: Adobe Illustrator 28.6.0, SVG Export Plug-In . SVG Version: 1.2.0 Build 709)  -->
  <g>
    <g id="_レイヤー_1" data-name="レイヤー_1">
      <path class="cls-1" d="M17.8,12.4s2,19,3.3,18.9.4-12.5,4.2-17.5c.7-.9,12.6.4,13.7,1.6,1.2,9.7,1.8,21.3,2.9,21.6s3-21.1,3-21.1c0,0,1.2,0,2.3.6s3,29.8,4.2,29.8,4-22.7,4.9-29.1c3.5-1.5,12.2-1.2,16.2,2.2,1.6,7.2,1.6,15.3,2.8,14.3,1.2-1,2-14,3.9-17.3s5.6,53.6,6.9,53.6,4.8-53.7,4.8-53.7c0,0,4.3,30.7,6,30.2s1.8-19.7,6.2-30.1c1.5-2,5.4-3.7,8.7.4,1.7,12.8,5.8,43.6,7.7,43.6s5.9-44.8,5.9-44.8c0,0,1.1-5,7.6-2.1,4.1,9.2,4.2,33.4,7,34.1,2.7.7,5.8-33.2,5.8-33.2,0,0,2.6,13.7,3,13.6s2.6-13.6,2.6-13.6c0,0,2.5-5,6.4-.4,1.1,1.3,4.7,25.8,5.5,25.8s2.2-21.5,2.2-21.5c0,0,5.9,33.8,6.4,33.7.4,0,.6-35,2.7-37.9,2.1-3,2.2-2.2,4.6.5,1.4,6.2,5.3,28.7,5.8,28.5s3.8-30.1,3.8-30.1c0,0,3.6-3,8.9.2s9.1,22.7,9.6,22.6,2.7-23.2,2.7-23.2c0,0,26.8-1.5,27.7-4.5C206.2,3.2,166,0,122,0,118.2,0,114.6,0,111.3,0c-3.3,0-7.3,0-11.9.1C64.3.9,32.1,3.5,5.7,7.5c1.3,1.4,5.1,3,12.2,5h-.1Z"/>
      <path class="cls-2" d="M237.7,8.2c-.8,3-27.7,4.5-27.7,4.5,0,0-2.3,23.2-2.7,23.2s-4.1-19.5-9.6-22.6c-5.4-3.1-8.9-.2-8.9-.2,0,0-3.3,30-3.8,30.1s-4.4-22.3-5.8-28.5c-2.4-2.7-2.5-3.5-4.6-.5s-2.3,37.8-2.7,37.9-6.4-33.7-6.4-33.7c0,0-1.4,21.5-2.2,21.5s-4.4-24.5-5.5-25.8c-3.9-4.6-6.4.4-6.4.4,0,0-2.2,13.5-2.6,13.6-.4.1-3-13.6-3-13.6,0,0-3.1,33.9-5.8,33.2-2.7-.7-2.8-24.9-7-34.1-6.4-3-7.6,2.1-7.6,2.1,0,0-4,44.8-5.9,44.8s-6-30.8-7.7-43.6c-3.3-4.1-7.2-2.4-8.7-.4-4.5,10.4-4.5,29.6-6.2,30.1s-6-30.2-6-30.2c0,0-3.4,53.7-4.8,53.7s-5-56.8-6.9-53.6-2.7,16.3-3.9,17.3-1.2-7.1-2.8-14.4c-4-3.4-12.6-3.7-16.2-2.2-1,6.5-3.7,29.2-4.9,29.1-1.2,0-3.1-29.3-4.2-29.8-1.1-.6-2.3-.6-2.3-.6,0,0-1.8,21.4-3,21.1-1.1-.3-1.7-11.9-2.9-21.6-1.1-1.2-13-2.5-13.7-1.6-3.8,5-2.9,17.4-4.2,17.5-1.3.1-3.3-18.9-3.3-18.9-7.1-2-10.9-3.6-12.2-5-1.9.3-3.8.6-5.7.9v54c32.2,5.2,73.9,8.4,119.4,8.4s97.2-3.9,130.7-10.3V10.3c-3.9-.8-8.1-1.5-12.4-2.2h0Z"/>
    </g>
  </g>
</svg>