<?xml version="1.0" encoding="UTF-8"?>
<svg xmlns="http://www.w3.org/2000/svg" version="1.1" viewBox="0 0 315.9 155.5">
  <defs>
    <style>
      .cls-1 {
        fill: #f2f8fb;
      }

      .cls-2 {
        fill: #c7dedc;
      }
    </style>
  </defs>
  <!-- Generator: Adobe Illustrator 28.6.0, SVG Export Plug-In . SVG Version: 1.2.0 Build 709)  -->
  <g>
    <g id="_レイヤー_2">
      <g id="_レイヤー_1-2">
        <path class="cls-2" d="M0,10.6C33.9,4.5,92,0,160.2,0s121.8,4.3,155.5,9.2c.3,57.2,0,88.7,0,136.1-70.6,7.5-105.1,9.9-159.9,10S65.6,155,0,147.5c.3-23.6,0-114,0-136.9Z"/>
        <path class="cls-1" d="M31,24.8c4.2.9,6.9,8.6,9.3,19.9s3.5,30.7,5.3,30.2,5.8-40.9,5.8-40.9c0,0,.2-3.3,2-3.6s2,.8,2.6,3.6c2.6,13.8,6.2,55.5,8.2,55.1,2-.4,2.7-41.7,6.9-53.3,4-11,9.7-7.6,11.8-.3s3.8,35.7,5.9,35.7.3-37.8,9.6-37.2,9.2,108.3,11.8,108.3,6.7-109.1,6.7-109.1c0,0,6.3,61.1,8.4,61.4s2.5-40,8.6-61.2c2.1-4.1,7.5-7.5,12.1.8,2.4,26,8.1,88.6,10.7,88.6s6.8-86.7,8-89.6,2.2-4,5.6-4.7c4.2,0,5.3,1.1,7,4,1.7,2.9,6.1,69.8,8.2,68.7s5.1-71.7,7.9-71.8,2.9,28.2,4.2,27.6,1-24.4,3.6-27.6,5.1-3.1,8.4.2,7,51.4,8.1,51.4.5-43.6,3.1-43.7,7.1,68.6,8.9,68.5,1-73.8,3.8-77,5.1-1.5,6.4,1,6.1,57.6,8.1,57.9,3.7-55.1,7.2-59c3.5-3.9,8.6-4.4,12.4.7s10.8,43.7,11.5,43.5,1.9-39.6,8.2-48.2c.6-.5,1.3-.9,1.9-1.4,15.3-2,25.7-9.8,26.5-13.8C281.8,2.1,243.5,0,155.6,0S36.8,2.5,0,10.6c8.3,10.8,26.9,13.3,31,14.2Z"/>
      </g>
      <text/>
    </g>
  </g>
</svg>