<?xml version="1.0" encoding="UTF-8"?>
<svg id="_レイヤー_2" data-name="レイヤー_2" xmlns="http://www.w3.org/2000/svg" xmlns:xlink="http://www.w3.org/1999/xlink" viewBox="0 0 221.71 261.48">
  <defs>
    <style>
      .cls-1, .cls-2 {
        isolation: isolate;
      }

      .cls-2 {
        fill: #553d38;
        font-family: KafuNagomiStd-B-83pv-RKSJ-H, 'FOT-KafuNagomi Std';
        font-size: 17.9px;
      }

      .cls-3 {
        fill: #fff;
      }

      .cls-4 {
        fill: #859eab;
      }

      .cls-5 {
        letter-spacing: 0em;
      }

      .cls-6 {
        letter-spacing: -.04em;
      }
    </style>
  </defs>
  <g id="_レイヤー_1-2" data-name="レイヤー_1">
    <image class="cls-1" width="358" height="1078" transform="translate(56.33) scale(.24)" xlink:href="../board-1.png"/>
    <image class="cls-1" width="856" height="481" transform="translate(19.67 22.41) scale(.24)" xlink:href="../board-2.png"/>
    <g class="cls-1">
      <g class="cls-1">
        <text class="cls-2" transform="translate(77.34 86.06)"><tspan x="0" y="0">記</tspan><tspan class="cls-6" x="17.9" y="0">事一</tspan><tspan class="cls-5" x="52.27" y="0">覧</tspan></text>
      </g>
    </g>
    <ellipse class="cls-3" cx="164.23" cy="58.22" rx="2.2" ry="6.2" transform="translate(16.43 150.51) rotate(-51.5)"/>
    <ellipse class="cls-3" cx="172.94" cy="65.11" rx="2.2" ry="6.2" transform="translate(14.33 159.93) rotate(-51.5)"/>
    <ellipse class="cls-3" cx="179.65" cy="71.49" rx="2" ry="7.5" transform="translate(11.87 167.58) rotate(-51.5)"/>
    <g>
      <ellipse class="cls-3" cx="98.56" cy="30.16" rx="7.4" ry="4.6"/>
      <path class="cls-3" d="M106.06,30.16c.1.8-.3,4.5-.3,4.5h-13.9c-1-2.3-.6-5.1-.6-5.1"/>
    </g>
    <g>
      <ellipse class="cls-3" cx="82.74" cy="53.96" rx="11.8" ry="4.5"/>
      <ellipse class="cls-3" cx="100.04" cy="53.96" rx="11.8" ry="4.5"/>
      <ellipse class="cls-3" cx="118.04" cy="53.96" rx="11.8" ry="4.5"/>
      <ellipse class="cls-3" cx="133.94" cy="53.96" rx="11.8" ry="4.5"/>
      <ellipse class="cls-3" cx="149.44" cy="53.96" rx="11.8" ry="4.5"/>
      <ellipse class="cls-3" cx="65.84" cy="53.96" rx="11.8" ry="4.5"/>
      <path class="cls-3" d="M54.04,53.96s-.2,2.4.9,4.6c6.2.2,105.8,0,105.8,0,0,0,1-3,.6-4.6"/>
      <path class="cls-3" d="M180.44,70.26s.3,1.8,0,4.2l-20.6-16.6-.6-3.8,21.1,16.2h.1Z"/>
    </g>
    <path class="cls-3" d="M185.64,75.46s.7,2.5-.3,3.1c-1.4-1.2-5.7-4.5-5.7-4.5"/>
    <path class="cls-4" d="M116.64,219.46l7.3-1.2s-.6-32.3,12.9-40.4c-15.6,8-20.3,30.2-20.1,41.6h-.1Z"/>
    <path class="cls-4" d="M104.94,220.76l14.2-.8c-1.6,3.6-6.5-25.9,1.2-47.4-13.9,22.1-12.8,34-15.4,48.2h0Z"/>
    <path class="cls-4" d="M79.04,214.56l-12,2.4c2,2.5.2-21.6-10.5-36.9,16,14.4,17.4,23.9,22.5,34.5h0Z"/>
    <path class="cls-4" d="M85.24,220.26l-13.3-.6c1.5,2.9,5.7-20.9-1.8-38.3,13.4,17.8,12.5,27.4,15.2,38.9h-.1Z"/>
    <path class="cls-4" d="M69.44,214.36l-13.4,3.6c2.2,1.6.9-16.2-10.6-26.1,17.3,8.4,18.6,15.3,24,22.5h0Z"/>
    <path class="cls-4" d="M115.24,223.06l9.3,1.4s10.9-30.7,30.2-33.5c-21.8,2-35.6,21.3-39.4,32.1h-.1Z"/>
    <ellipse class="cls-3" cx="91.24" cy="226.66" rx="38.7" ry="18.5"/>
    <ellipse class="cls-3" cx="38.74" cy="226.66" rx="38.6" ry="18.5"/>
    <ellipse class="cls-3" cx="132.44" cy="226.66" rx="38.6" ry="18.5"/>
    <ellipse class="cls-3" cx="173.64" cy="226.66" rx="38.7" ry="18.5"/>
    <path class="cls-3" d="M.04,226.66s-5.2,35.7,106.2,34.8c111.3-.8,106-34.8,106-34.8"/>
  </g>
</svg>