<?xml version="1.0" encoding="UTF-8"?>
<svg xmlns="http://www.w3.org/2000/svg" version="1.1" viewBox="0 0 367.1 240.1">
  <defs>
    <style>
      .cls-1 {
        fill: #9d857f;
      }

      .cls-2 {
        fill: #f8feff;
      }

      .cls-3 {
        fill: #d0cec4;
      }

      .cls-4 {
        fill: #656562;
      }

      .cls-5, .cls-6 {
        fill: #fff;
      }

      .cls-7 {
        fill: #cb8d81;
      }

      .cls-8 {
        fill: #cbe5e3;
      }

      .cls-6 {
        isolation: isolate;
        opacity: .9;
      }
    </style>
  </defs>
  <!-- Generator: Adobe Illustrator 28.6.0, SVG Export Plug-In . SVG Version: 1.2.0 Build 709)  -->
  <g>
    <g id="_レイヤー_2">
      <g id="_レイヤー_2-2">
        <path class="cls-8" d="M15.1,106.4c15.7-24.8,19-58.2,45.6-78.6C87.3,7.5,137.3,0,184,0s85.5,4.1,113.2,16.6c42.8,19.3,37.2,59.3,55.7,89.9,45.8,75.9-20.9,99.1-168.9,106.4-143.6,7.1-218-28.8-168.9-106.4h0Z"/>
        <polygon class="cls-3" points="144.7 136.6 183.3 101.1 221.9 136.6 221.9 177.6 144.7 177.6 144.7 136.6"/>
      </g>
      <path class="cls-5" d="M328.2,126.8c8.6,14.2,23.8,27.5,23.8,27.5,0,0-15.9-.5-22.2-1.4s-17.5-4.4-17.5-4.4c0,0-11.4,3.4-19,4.5s-20.8,1.3-20.8,1.3c0,0,13.4-14.1,22.8-27.5,16.1.2,20.8-.2,32.8,0h0Z"/>
      <path class="cls-5" d="M326.4,105.5c7.7,14.2,21.2,27.5,21.2,27.5,0,0-14.2-.5-19.7-1.4s-15.6-4.3-15.6-4.3c0,0-10.1,3.4-16.9,4.5s-18.5,1.3-18.5,1.3c0,0,11.9-14.1,20.3-27.5,14.4.2,18.5-.2,29.2,0h0Z"/>
      <path class="cls-5" d="M325.2,79c5.8,12.4,17.5,32.3,17.5,32.3,0,0-12.2-.5-17-1.4s-13.4-4.3-13.4-4.3c0,0-8.7,3.4-14.5,4.5s-15.9,1.3-15.9,1.3c0,0,12.3-21.2,17.2-31,4.8-9.7,13.3-37.5,13.3-41.2s7.2,27.4,12.9,39.8h0Z"/>
      <path class="cls-1" d="M312.2,84.1c2,0,2,93.5,2,93.5h-4s0-93.5,2-93.5h0Z"/>
      <path class="cls-5" d="M275,135.6c5.9,9.8,16.3,18.9,16.3,18.9,0,0-10.9-.4-15.2-1s-12-3-12-3c0,0-7.8,2.3-13,3.1s-14.2.9-14.2.9c0,0,9.2-9.6,15.7-18.9,11,.1,14.2-.1,22.5,0h0Z"/>
      <rect class="cls-3" x="201.6" y="105.1" width="14.6" height="25.2"/>
      <path class="cls-5" d="M273.8,121c5.3,9.8,14.5,18.9,14.5,18.9,0,0-9.7-.4-13.5-1s-10.7-3-10.7-3c0,0-7,2.3-11.6,3.1s-12.7.9-12.7.9c0,0,8.2-9.6,13.9-18.8,9.8,0,12.7-.1,20,0h0Z"/>
      <path class="cls-5" d="M272.9,102.8c3.9,8.5,12,22.2,12,22.2,0,0-8.4-.3-11.6-1-3.3-.6-9.2-3-9.2-3,0,0-6,2.3-10,3.1s-10.9.9-10.9.9c0,0,8.5-14.6,11.8-21.2s9.1-25.7,9.1-28.3,4.9,18.8,8.9,27.3h0Z"/>
      <path class="cls-1" d="M264.1,105.1c1.5,0,1.5,73.2,1.5,73.2h-3.1s0-73.2,1.5-73.2h0Z"/>
      <ellipse class="cls-5" cx="264.1" cy="188.4" rx="29.7" ry="16.1"/>
      <ellipse class="cls-5" cx="312.2" cy="181.1" rx="29.7" ry="16.1"/>
      <path class="cls-5" d="M235.6,183.8c6.8-11.7,20-7.4,48.2-7.4s43.2-13,53.4-4.1c20.5,18,3.9,51.9-46.3,55.3-38.7,2.6-66.4-24.8-55.3-43.9h0Z"/>
      <path class="cls-5" d="M38.5,129c-8.6,14.2-23.8,27.5-23.8,27.5,0,0,15.9-.5,22.2-1.4,6.2-.9,17.5-4.4,17.5-4.4,0,0,11.4,3.4,19,4.5,7.6,1.1,20.8,1.3,20.8,1.3,0,0-13.4-14.1-22.8-27.5-16.1.1-20.8-.2-32.8,0h0Z"/>
      <path class="cls-5" d="M40.2,107.7c-7.7,14.2-21.2,27.5-21.2,27.5,0,0,14.2-.5,19.7-1.4,5.6-.9,15.6-4.4,15.6-4.4,0,0,10.1,3.4,16.9,4.5s18.5,1.3,18.5,1.3c0,0-11.9-14.1-20.3-27.5-14.3.2-18.5-.2-29.2,0h0Z"/>
      <path class="cls-5" d="M41.4,81.3c-5.8,12.4-17.5,32.3-17.5,32.3,0,0,12.2-.5,17-1.4s13.4-4.3,13.4-4.3c0,0,8.7,3.4,14.5,4.5,5.8,1.1,15.9,1.3,15.9,1.3,0,0-12.3-21.2-17.2-31s-13.3-37.5-13.3-41.2-7.2,27.4-12.9,39.8h0Z"/>
      <path class="cls-1" d="M54.4,86.3c-2,0-2,93.5-2,93.5h4s0-93.5-2-93.5Z"/>
      <path class="cls-5" d="M91.6,137.8c-5.9,9.8-16.3,18.9-16.3,18.9,0,0,10.9-.4,15.2-1s12-3,12-3c0,0,7.8,2.3,13,3.1s14.2.9,14.2.9c0,0-9.2-9.6-15.7-18.9-11.1.1-14.2-.1-22.5,0h0Z"/>
      <path class="cls-5" d="M92.8,123.2c-5.3,9.8-14.5,18.8-14.5,18.8,0,0,9.7-.4,13.5-1s10.7-3,10.7-3c0,0,6.9,2.3,11.6,3.1s12.7.9,12.7.9c0,0-8.2-9.6-13.9-18.8-9.8,0-12.7-.1-20,0h0Z"/>
      <path class="cls-5" d="M93.7,105.1c-3.9,8.5-12,22.2-12,22.2,0,0,8.4-.3,11.6-1s9.2-3,9.2-3c0,0,6,2.3,10,3.1,4,.8,10.9.9,10.9.9,0,0-8.5-14.6-11.8-21.2s-9.1-25.7-9.1-28.3-4.9,18.8-8.9,27.3h0Z"/>
      <path class="cls-1" d="M102.5,107.3c-1.6,0-1.6,73.2-1.6,73.2h3.1s0-73.2-1.5-73.2Z"/>
      <ellipse class="cls-5" cx="102.5" cy="190.7" rx="29.7" ry="16.1"/>
      <ellipse class="cls-2" cx="54.4" cy="183.3" rx="29.7" ry="16.1"/>
      <path class="cls-5" d="M131,186c-6.8-11.7-20-7.4-48.2-7.4s-43.2-13-53.4-4.1c-20.5,18-3.9,51.9,46.3,55.3,38.7,2.6,66.4-24.8,55.3-43.9h0Z"/>
      <path class="cls-2" d="M290.9,227.7s-100.7,26.5-215.2,2.2c14-23.1,124.3-65.2,215.2-2.2Z"/>
      <polygon class="cls-6" points="228.4 138.6 183.7 97.5 183.7 97.5 183.3 97.1 182.9 97.5 182.9 97.5 138.2 138.6 140.8 140.4 183.3 101.4 225.9 140.4 228.4 138.6"/>
      <rect class="cls-1" x="155.1" y="143.5" width="13.1" height="14.7"/>
      <rect class="cls-1" x="199" y="143.5" width="13.1" height="14.7"/>
      <rect class="cls-1" x="174.9" y="145" width="16.7" height="29.9"/>
      <ellipse class="cls-5" cx="183.3" cy="199.3" rx="80" ry="27"/>
      <rect class="cls-8" x="157.2" y="145.4" width="8.9" height="10.8"/>
      <rect class="cls-8" x="201.2" y="145.4" width="8.9" height="10.8"/>
      <rect class="cls-1" x="160.9" y="144.9" width="1.3" height="11.8"/>
      <rect class="cls-1" x="204.9" y="144.9" width="1.3" height="11.8"/>
      <rect class="cls-1" x="156.2" y="150.4" width="10.9" height="1.3"/>
      <rect class="cls-1" x="199.5" y="150.4" width="10.9" height="1.3"/>
      <rect class="cls-7" x="177.8" y="147.8" width="11.3" height="24.6"/>
      <circle class="cls-4" cx="187.2" cy="160.1" r="1.1"/>
      <rect class="cls-5" x="200.4" y="102.4" width="17.4" height="2.7"/>
    </g>
  </g>
</svg>