<?xml version="1.0" encoding="UTF-8"?>
<svg id="_レイヤー_2" data-name="レイヤー_2" xmlns="http://www.w3.org/2000/svg" viewBox="0 0 396.38 53.86">
  <defs>
    <style>
      .cls-1 {
        fill: #0c4b6d;
      }

      .cls-2 {
        fill: #d5d7ab;
      }
    </style>
  </defs>
  <g id="_レイヤー_3" data-name="レイヤー_3">
    <g>
      <path class="cls-1" d="M.46,23.08C2.69,10.72,7.47,0,9.7,0c2.89,0,7.25,11.85,9.24,23.08,1.99,11.23-4.14,23.08-9.24,23.08S-1.78,35.44.46,23.08Z"/>
      <path class="cls-2" d="M11.71,48.43c-.53-1.29-.91-4.18-1.19-7.76l-.16-6.27-.18-4.43-.1-15.77h-.77l-.16,15.77h0l-.18,4.43-.16,6.27c-.28,3.58-.66,6.48-1.19,7.76-1.94,4.56-3.24,5.43-3.24,5.43h10.57s-1.3-.87-3.24-5.43Z"/>
    </g>
    <polygon class="cls-2" points="10.18 21.08 13.8 17.38 9.66 19.79 10.18 21.08"/>
    <polygon class="cls-2" points="10.18 31.98 13.8 28.27 9.66 30.68 10.18 31.98"/>
    <polygon class="cls-2" points="9.14 27.73 5.52 24.02 9.66 26.43 9.14 27.73"/>
    <polygon class="cls-2" points="9 37.74 4.38 33.64 9.66 36.31 9 37.74"/>
    <g>
      <path class="cls-1" d="M20.3,23.08C22.54,10.72,27.32,0,29.55,0c2.89,0,7.25,11.85,9.24,23.08,1.99,11.23-4.14,23.08-9.24,23.08s-11.48-10.72-9.24-23.08Z"/>
      <path class="cls-2" d="M31.56,48.43c-.53-1.29-.91-4.18-1.19-7.76l-.16-6.27-.18-4.43-.1-15.77h-.77l-.16,15.77h0l-.18,4.43-.16,6.27c-.28,3.58-.66,6.48-1.19,7.76-1.94,4.56-3.24,5.43-3.24,5.43h10.57s-1.3-.87-3.24-5.43Z"/>
    </g>
    <polygon class="cls-2" points="30.02 21.08 33.65 17.38 29.51 19.79 30.02 21.08"/>
    <polygon class="cls-2" points="30.02 31.98 33.65 28.27 29.51 30.68 30.02 31.98"/>
    <polygon class="cls-2" points="28.99 27.73 25.37 24.02 29.51 26.43 28.99 27.73"/>
    <polygon class="cls-2" points="28.85 37.74 24.22 33.64 29.51 36.31 28.85 37.74"/>
    <g>
      <path class="cls-1" d="M40.15,23.08C42.39,10.72,47.16,0,49.39,0c2.89,0,7.25,11.85,9.24,23.08,1.99,11.23-4.14,23.08-9.24,23.08s-11.48-10.72-9.24-23.08Z"/>
      <path class="cls-2" d="M51.4,48.43c-.53-1.29-.91-4.18-1.19-7.76l-.16-6.27-.18-4.43-.1-15.77h-.77l-.16,15.77h0l-.18,4.43-.16,6.27c-.28,3.58-.66,6.48-1.19,7.76-1.94,4.56-3.24,5.43-3.24,5.43h10.57s-1.3-.87-3.24-5.43Z"/>
    </g>
    <polygon class="cls-2" points="49.87 21.08 53.49 17.38 49.35 19.79 49.87 21.08"/>
    <polygon class="cls-2" points="49.87 31.98 53.49 28.27 49.35 30.68 49.87 31.98"/>
    <polygon class="cls-2" points="48.84 27.73 45.21 24.02 49.35 26.43 48.84 27.73"/>
    <polygon class="cls-2" points="48.69 37.74 44.07 33.64 49.35 36.31 48.69 37.74"/>
    <g>
      <path class="cls-1" d="M60,23.08c2.24-12.36,7.01-23.08,9.24-23.08,2.89,0,7.25,11.85,9.24,23.08,1.99,11.23-4.14,23.08-9.24,23.08s-11.48-10.72-9.24-23.08Z"/>
      <path class="cls-2" d="M71.25,48.43c-.53-1.29-.91-4.18-1.19-7.76l-.16-6.27-.18-4.43-.1-15.77h-.77l-.16,15.77h0l-.18,4.43-.16,6.27c-.28,3.58-.66,6.48-1.19,7.76-1.94,4.56-3.24,5.43-3.24,5.43h10.57s-1.3-.87-3.24-5.43Z"/>
    </g>
    <polygon class="cls-2" points="69.72 21.08 73.34 17.38 69.2 19.79 69.72 21.08"/>
    <polygon class="cls-2" points="69.72 31.98 73.34 28.27 69.2 30.68 69.72 31.98"/>
    <polygon class="cls-2" points="68.68 27.73 65.06 24.02 69.2 26.43 68.68 27.73"/>
    <polygon class="cls-2" points="68.54 37.74 63.91 33.64 69.2 36.31 68.54 37.74"/>
    <g>
      <path class="cls-1" d="M79.84,23.08c2.24-12.36,7.01-23.08,9.24-23.08,2.89,0,7.25,11.85,9.24,23.08,1.99,11.23-4.14,23.08-9.24,23.08s-11.48-10.72-9.24-23.08Z"/>
      <path class="cls-2" d="M91.09,48.43c-.53-1.29-.91-4.18-1.19-7.76l-.16-6.27-.18-4.43-.1-15.77h-.77l-.16,15.77h0l-.18,4.43-.16,6.27c-.28,3.58-.66,6.48-1.19,7.76-1.94,4.56-3.24,5.43-3.24,5.43h10.57s-1.3-.87-3.24-5.43Z"/>
    </g>
    <polygon class="cls-2" points="89.56 21.08 93.18 17.38 89.04 19.79 89.56 21.08"/>
    <polygon class="cls-2" points="89.56 31.98 93.18 28.27 89.04 30.68 89.56 31.98"/>
    <polygon class="cls-2" points="88.53 27.73 84.9 24.02 89.04 26.43 88.53 27.73"/>
    <polygon class="cls-2" points="88.38 37.74 83.76 33.64 89.04 36.31 88.38 37.74"/>
    <g>
      <path class="cls-1" d="M99.69,23.08c2.24-12.36,7.01-23.08,9.24-23.08,2.89,0,7.25,11.85,9.24,23.08,1.99,11.23-4.14,23.08-9.24,23.08s-11.48-10.72-9.24-23.08Z"/>
      <path class="cls-2" d="M110.94,48.43c-.53-1.29-.91-4.18-1.19-7.76l-.16-6.27-.18-4.43-.1-15.77h-.77l-.16,15.77h0l-.18,4.43-.16,6.27c-.28,3.58-.66,6.48-1.19,7.76-1.94,4.56-3.24,5.43-3.24,5.43h10.57s-1.3-.87-3.24-5.43Z"/>
    </g>
    <polygon class="cls-2" points="109.41 21.08 113.03 17.38 108.89 19.79 109.41 21.08"/>
    <polygon class="cls-2" points="109.41 31.98 113.03 28.27 108.89 30.68 109.41 31.98"/>
    <polygon class="cls-2" points="108.37 27.73 104.75 24.02 108.89 26.43 108.37 27.73"/>
    <polygon class="cls-2" points="108.23 37.74 103.6 33.64 108.89 36.31 108.23 37.74"/>
    <g>
      <path class="cls-1" d="M119.53,23.08c2.24-12.36,7.01-23.08,9.24-23.08,2.89,0,7.25,11.85,9.24,23.08,1.99,11.23-4.14,23.08-9.24,23.08s-11.48-10.72-9.24-23.08Z"/>
      <path class="cls-2" d="M130.78,48.43c-.53-1.29-.91-4.18-1.19-7.76l-.16-6.27-.18-4.43-.1-15.77h-.77l-.16,15.77h0l-.18,4.43-.16,6.27c-.28,3.58-.66,6.48-1.19,7.76-1.94,4.56-3.24,5.43-3.24,5.43h10.57s-1.3-.87-3.24-5.43Z"/>
    </g>
    <polygon class="cls-2" points="129.25 21.08 132.87 17.38 128.73 19.79 129.25 21.08"/>
    <polygon class="cls-2" points="129.25 31.98 132.87 28.27 128.73 30.68 129.25 31.98"/>
    <polygon class="cls-2" points="128.22 27.73 124.59 24.02 128.73 26.43 128.22 27.73"/>
    <polygon class="cls-2" points="128.07 37.74 123.45 33.64 128.73 36.31 128.07 37.74"/>
    <g>
      <path class="cls-1" d="M139.38,23.08c2.24-12.36,7.01-23.08,9.24-23.08,2.89,0,7.25,11.85,9.24,23.08,1.99,11.23-4.14,23.08-9.24,23.08s-11.48-10.72-9.24-23.08Z"/>
      <path class="cls-2" d="M150.63,48.43c-.53-1.29-.91-4.18-1.19-7.76l-.16-6.27-.18-4.43-.1-15.77h-.77l-.16,15.77h0l-.18,4.43-.16,6.27c-.28,3.58-.66,6.48-1.19,7.76-1.94,4.56-3.24,5.43-3.24,5.43h10.57s-1.3-.87-3.24-5.43Z"/>
    </g>
    <polygon class="cls-2" points="149.1 21.08 152.72 17.38 148.58 19.79 149.1 21.08"/>
    <polygon class="cls-2" points="149.1 31.98 152.72 28.27 148.58 30.68 149.1 31.98"/>
    <polygon class="cls-2" points="148.06 27.73 144.44 24.02 148.58 26.43 148.06 27.73"/>
    <polygon class="cls-2" points="147.92 37.74 143.29 33.64 148.58 36.31 147.92 37.74"/>
    <g>
      <path class="cls-1" d="M159.22,23.08c2.24-12.36,7.01-23.08,9.24-23.08,2.89,0,7.25,11.85,9.24,23.08,1.99,11.23-4.14,23.08-9.24,23.08s-11.48-10.72-9.24-23.08Z"/>
      <path class="cls-2" d="M170.47,48.43c-.53-1.29-.91-4.18-1.19-7.76l-.16-6.27-.18-4.43-.1-15.77h-.77l-.16,15.77h0l-.18,4.43-.16,6.27c-.28,3.58-.66,6.48-1.19,7.76-1.94,4.56-3.24,5.43-3.24,5.43h10.57s-1.3-.87-3.24-5.43Z"/>
    </g>
    <polygon class="cls-2" points="168.94 21.08 172.56 17.38 168.42 19.79 168.94 21.08"/>
    <polygon class="cls-2" points="168.94 31.98 172.56 28.27 168.42 30.68 168.94 31.98"/>
    <polygon class="cls-2" points="167.91 27.73 164.28 24.02 168.42 26.43 167.91 27.73"/>
    <polygon class="cls-2" points="167.76 37.74 163.14 33.64 168.42 36.31 167.76 37.74"/>
    <g>
      <path class="cls-1" d="M179.07,23.08c2.24-12.36,7.01-23.08,9.24-23.08,2.89,0,7.25,11.85,9.24,23.08s-4.14,23.08-9.24,23.08-11.48-10.72-9.24-23.08Z"/>
      <path class="cls-2" d="M190.32,48.43c-.53-1.29-.91-4.18-1.19-7.76l-.16-6.27-.18-4.43-.1-15.77h-.77l-.16,15.77h0l-.18,4.43-.16,6.27c-.28,3.58-.66,6.48-1.19,7.76-1.94,4.56-3.24,5.43-3.24,5.43h10.57s-1.3-.87-3.24-5.43Z"/>
    </g>
    <polygon class="cls-2" points="188.79 21.08 192.41 17.38 188.27 19.79 188.79 21.08"/>
    <polygon class="cls-2" points="188.79 31.98 192.41 28.27 188.27 30.68 188.79 31.98"/>
    <polygon class="cls-2" points="187.75 27.73 184.13 24.02 188.27 26.43 187.75 27.73"/>
    <polygon class="cls-2" points="187.61 37.74 182.98 33.64 188.27 36.31 187.61 37.74"/>
    <g>
      <path class="cls-1" d="M198.91,23.08c2.24-12.36,7.01-23.08,9.24-23.08,2.89,0,7.25,11.85,9.24,23.08s-4.14,23.08-9.24,23.08-11.48-10.72-9.24-23.08Z"/>
      <path class="cls-2" d="M210.16,48.43c-.53-1.29-.91-4.18-1.19-7.76l-.16-6.27-.18-4.43-.1-15.77h-.77l-.16,15.77h0l-.18,4.43-.16,6.27c-.28,3.58-.66,6.48-1.19,7.76-1.94,4.56-3.24,5.43-3.24,5.43h10.57s-1.3-.87-3.24-5.43Z"/>
    </g>
    <polygon class="cls-2" points="208.63 21.08 212.25 17.38 208.11 19.79 208.63 21.08"/>
    <polygon class="cls-2" points="208.63 31.98 212.25 28.27 208.11 30.68 208.63 31.98"/>
    <polygon class="cls-2" points="207.6 27.73 203.97 24.02 208.11 26.43 207.6 27.73"/>
    <polygon class="cls-2" points="207.45 37.74 202.83 33.64 208.11 36.31 207.45 37.74"/>
    <g>
      <path class="cls-1" d="M218.76,23.08c2.24-12.36,7.01-23.08,9.24-23.08,2.89,0,7.25,11.85,9.24,23.08s-4.14,23.08-9.24,23.08-11.48-10.72-9.24-23.08Z"/>
      <path class="cls-2" d="M230.01,48.43c-.53-1.29-.91-4.18-1.19-7.76l-.16-6.27-.18-4.43-.1-15.77h-.77l-.16,15.77h0l-.18,4.43-.16,6.27c-.28,3.58-.66,6.48-1.19,7.76-1.94,4.56-3.24,5.43-3.24,5.43h10.57s-1.3-.87-3.24-5.43Z"/>
    </g>
    <polygon class="cls-2" points="228.48 21.08 232.1 17.38 227.96 19.79 228.48 21.08"/>
    <polygon class="cls-2" points="228.48 31.98 232.1 28.27 227.96 30.68 228.48 31.98"/>
    <polygon class="cls-2" points="227.44 27.73 223.82 24.02 227.96 26.43 227.44 27.73"/>
    <polygon class="cls-2" points="227.3 37.74 222.67 33.64 227.96 36.31 227.3 37.74"/>
    <g>
      <path class="cls-1" d="M238.6,23.08c2.24-12.36,7.01-23.08,9.24-23.08,2.89,0,7.25,11.85,9.24,23.08s-4.14,23.08-9.24,23.08-11.48-10.72-9.24-23.08Z"/>
      <path class="cls-2" d="M249.85,48.43c-.53-1.29-.91-4.18-1.19-7.76l-.16-6.27-.18-4.43-.1-15.77h-.77l-.16,15.77h0l-.18,4.43-.16,6.27c-.28,3.58-.66,6.48-1.19,7.76-1.94,4.56-3.24,5.43-3.24,5.43h10.57s-1.3-.87-3.24-5.43Z"/>
    </g>
    <polygon class="cls-2" points="248.32 21.08 251.94 17.38 247.8 19.79 248.32 21.08"/>
    <polygon class="cls-2" points="248.32 31.98 251.94 28.27 247.8 30.68 248.32 31.98"/>
    <polygon class="cls-2" points="247.29 27.73 243.66 24.02 247.8 26.43 247.29 27.73"/>
    <polygon class="cls-2" points="247.14 37.74 242.52 33.64 247.8 36.31 247.14 37.74"/>
    <g>
      <path class="cls-1" d="M258.45,23.08c2.24-12.36,7.01-23.08,9.24-23.08,2.89,0,7.25,11.85,9.24,23.08s-4.14,23.08-9.24,23.08-11.48-10.72-9.24-23.08Z"/>
      <path class="cls-2" d="M269.7,48.43c-.53-1.29-.91-4.18-1.19-7.76l-.16-6.27-.18-4.43-.1-15.77h-.77l-.16,15.77h0l-.18,4.43-.16,6.27c-.28,3.58-.66,6.48-1.19,7.76-1.94,4.56-3.24,5.43-3.24,5.43h10.57s-1.3-.87-3.24-5.43Z"/>
    </g>
    <polygon class="cls-2" points="268.17 21.08 271.79 17.38 267.65 19.79 268.17 21.08"/>
    <polygon class="cls-2" points="268.17 31.98 271.79 28.27 267.65 30.68 268.17 31.98"/>
    <polygon class="cls-2" points="267.13 27.73 263.51 24.02 267.65 26.43 267.13 27.73"/>
    <polygon class="cls-2" points="266.99 37.74 262.36 33.64 267.65 36.31 266.99 37.74"/>
    <g>
      <path class="cls-1" d="M278.29,23.08c2.24-12.36,7.01-23.08,9.24-23.08,2.89,0,7.25,11.85,9.24,23.08s-4.14,23.08-9.24,23.08-11.48-10.72-9.24-23.08Z"/>
      <path class="cls-2" d="M289.54,48.43c-.53-1.29-.91-4.18-1.19-7.76l-.16-6.27-.18-4.43-.1-15.77h-.77l-.16,15.77h0l-.18,4.43-.16,6.27c-.28,3.58-.66,6.48-1.19,7.76-1.94,4.56-3.24,5.43-3.24,5.43h10.57s-1.3-.87-3.24-5.43Z"/>
    </g>
    <polygon class="cls-2" points="288.01 21.08 291.63 17.38 287.49 19.79 288.01 21.08"/>
    <polygon class="cls-2" points="288.01 31.98 291.63 28.27 287.49 30.68 288.01 31.98"/>
    <polygon class="cls-2" points="286.98 27.73 283.35 24.02 287.49 26.43 286.98 27.73"/>
    <polygon class="cls-2" points="286.83 37.74 282.21 33.64 287.49 36.31 286.83 37.74"/>
    <g>
      <path class="cls-1" d="M298.14,23.08c2.24-12.36,7.01-23.08,9.24-23.08,2.89,0,7.25,11.85,9.24,23.08s-4.14,23.08-9.24,23.08-11.48-10.72-9.24-23.08Z"/>
      <path class="cls-2" d="M309.39,48.43c-.53-1.29-.91-4.18-1.19-7.76l-.16-6.27-.18-4.43-.1-15.77h-.77l-.16,15.77h0l-.18,4.43-.16,6.27c-.28,3.58-.66,6.48-1.19,7.76-1.94,4.56-3.24,5.43-3.24,5.43h10.57s-1.3-.87-3.24-5.43Z"/>
    </g>
    <polygon class="cls-2" points="307.86 21.08 311.48 17.38 307.34 19.79 307.86 21.08"/>
    <polygon class="cls-2" points="307.86 31.98 311.48 28.27 307.34 30.68 307.86 31.98"/>
    <polygon class="cls-2" points="306.82 27.73 303.2 24.02 307.34 26.43 306.82 27.73"/>
    <polygon class="cls-2" points="306.68 37.74 302.05 33.64 307.34 36.31 306.68 37.74"/>
    <g>
      <path class="cls-1" d="M317.98,23.08c2.24-12.36,7.01-23.08,9.24-23.08,2.89,0,7.25,11.85,9.24,23.08s-4.14,23.08-9.24,23.08-11.48-10.72-9.24-23.08Z"/>
      <path class="cls-2" d="M329.23,48.43c-.53-1.29-.91-4.18-1.19-7.76l-.16-6.27-.18-4.43-.1-15.77h-.77l-.16,15.77h0l-.18,4.43-.16,6.27c-.28,3.58-.66,6.48-1.19,7.76-1.94,4.56-3.24,5.43-3.24,5.43h10.57s-1.3-.87-3.24-5.43Z"/>
    </g>
    <polygon class="cls-2" points="327.7 21.08 331.32 17.38 327.18 19.79 327.7 21.08"/>
    <polygon class="cls-2" points="327.7 31.98 331.32 28.27 327.18 30.68 327.7 31.98"/>
    <polygon class="cls-2" points="326.67 27.73 323.04 24.02 327.18 26.43 326.67 27.73"/>
    <polygon class="cls-2" points="326.52 37.74 321.9 33.64 327.18 36.31 326.52 37.74"/>
    <g>
      <path class="cls-1" d="M337.83,23.08c2.24-12.36,7.01-23.08,9.24-23.08,2.89,0,7.25,11.85,9.24,23.08s-4.14,23.08-9.24,23.08-11.48-10.72-9.24-23.08Z"/>
      <path class="cls-2" d="M349.08,48.43c-.53-1.29-.91-4.18-1.19-7.76l-.16-6.27-.18-4.43-.1-15.77h-.77l-.16,15.77h0l-.18,4.43-.16,6.27c-.28,3.58-.66,6.48-1.19,7.76-1.94,4.56-3.24,5.43-3.24,5.43h10.57s-1.3-.87-3.24-5.43Z"/>
    </g>
    <polygon class="cls-2" points="347.55 21.08 351.17 17.38 347.03 19.79 347.55 21.08"/>
    <polygon class="cls-2" points="347.55 31.98 351.17 28.27 347.03 30.68 347.55 31.98"/>
    <polygon class="cls-2" points="346.51 27.73 342.89 24.02 347.03 26.43 346.51 27.73"/>
    <polygon class="cls-2" points="346.37 37.74 341.74 33.64 347.03 36.31 346.37 37.74"/>
    <g>
      <path class="cls-1" d="M357.67,23.08c2.24-12.36,7.01-23.08,9.24-23.08,2.89,0,7.25,11.85,9.24,23.08s-4.14,23.08-9.24,23.08-11.48-10.72-9.24-23.08Z"/>
      <path class="cls-2" d="M368.92,48.43c-.53-1.29-.91-4.18-1.19-7.76l-.16-6.27-.18-4.43-.1-15.77h-.77l-.16,15.77h0l-.18,4.43-.16,6.27c-.28,3.58-.66,6.48-1.19,7.76-1.94,4.56-3.24,5.43-3.24,5.43h10.57s-1.3-.87-3.24-5.43Z"/>
    </g>
    <polygon class="cls-2" points="367.39 21.08 371.01 17.38 366.87 19.79 367.39 21.08"/>
    <polygon class="cls-2" points="367.39 31.98 371.01 28.27 366.87 30.68 367.39 31.98"/>
    <polygon class="cls-2" points="366.36 27.73 362.73 24.02 366.87 26.43 366.36 27.73"/>
    <polygon class="cls-2" points="366.21 37.74 361.59 33.64 366.87 36.31 366.21 37.74"/>
    <g>
      <path class="cls-1" d="M377.52,23.08c2.24-12.36,7.01-23.08,9.24-23.08,2.89,0,7.25,11.85,9.24,23.08s-4.14,23.08-9.24,23.08-11.48-10.72-9.24-23.08Z"/>
      <path class="cls-2" d="M388.77,48.43c-.53-1.29-.91-4.18-1.19-7.76l-.16-6.27-.18-4.43-.1-15.77h-.77l-.16,15.77h0l-.18,4.43-.16,6.27c-.28,3.58-.66,6.48-1.19,7.76-1.94,4.56-3.24,5.43-3.24,5.43h10.57s-1.3-.87-3.24-5.43Z"/>
    </g>
    <polygon class="cls-2" points="387.24 21.08 390.86 17.38 386.72 19.79 387.24 21.08"/>
    <polygon class="cls-2" points="387.24 31.98 390.86 28.27 386.72 30.68 387.24 31.98"/>
    <polygon class="cls-2" points="386.2 27.73 382.58 24.02 386.72 26.43 386.2 27.73"/>
    <polygon class="cls-2" points="386.06 37.74 381.43 33.64 386.72 36.31 386.06 37.74"/>
  </g>
</svg>