<?xml version="1.0" encoding="UTF-8"?>
<svg id="_レイヤー_2" data-name="レイヤー_2" xmlns="http://www.w3.org/2000/svg" viewBox="0 0 315.78 155.72">
  <defs>
    <style>
      .cls-1 {
        fill: #f2f8fb;
      }

      .cls-2 {
        fill: #c7dedc;
      }
    </style>
  </defs>
  <g id="_レイヤー_1-2" data-name="レイヤー_1">
    <path class="cls-2" d="M.98,76.95C.9,25.65,0,33.79,0,10.82,33.89,4.79,86.28,1.92,160.23.26c48.57-1.09,104.48,2.42,155.41,11.76.3,57.18.07,70.39-.06,61.31s-1.83,27.98.06,72.33c-70.59,7.53-109.97,9.89-164.74,10.06s-83.01-1.99-148.58-9.53c.31-23.65-1.45-40.13-1.33-69.23Z"/>
    <path class="cls-1" d="M31.05,25.17c5.16,2.26,7.8,8.89,8.92,17.1,1.25,9.16,3.18,24.18,5.73,32.98,2.9-20.04,5.85-40.93,5.85-40.93,0,0,.25-3.33,1.97-3.64s2.04.81,2.57,3.57c2.64,13.77,7,55.07,8.16,55.07,1.08-13.67,1.7-42.11,6.94-53.32s11.77-4.93,13.72-.7,4.37,25.3,5.41,33.05c1.16-9.72,4.65-34.11,10.29-34.79s7.8,108.93,9.61,108.93,6.68-109.13,6.68-109.13c0,0,5.99,62.39,8.36,61.37s2.51-40.04,8.63-61.17c2.09-4.06,7.52-7.52,12.12.81,2.37,26.01,8.08,88.61,10.72,88.61s6.8-86.74,8.04-89.6,2.22-3.95,5.57-4.74c4.19,0,5.28,1.09,6.97,4.01s6.11,69.8,8.19,68.65,7.87-71.79,7.87-71.79c0,0,3.62,27.84,4.18,27.64s.97-24.44,3.62-27.64,5.07-3.07,8.43.23,7.03,51.39,8.14,51.39,3.06-43.69,3.06-43.69c0,0,8.22,68.69,8.91,68.49.56,0,.98-73.76,3.76-77.02s5.11-1.52,6.41,1.02,7.38,58.33,8.08,57.92,3.68-55.11,7.21-59.02c3.53-3.91,8.57-4.36,12.4.73s10.75,43.65,11.45,43.45,3.51-43.35,3.51-43.35c0,0,3.43-4.35,8.12-4.89,11.04-1.28,24.1-8.43,24.98-12.71C281.83.65,199.13-.85,155.56.34,117.56,1.37,36.77,2.79,0,10.92c1.81,2.85,6.44,7.96,14.63,10.75s9.02,3.29,16.42,3.49Z"/>
  </g>
</svg>