<?xml version="1.0" encoding="UTF-8"?>
<svg id="_レイヤー_2" data-name="レイヤー_2" xmlns="http://www.w3.org/2000/svg" viewBox="0 0 113.81 20.38">
  <defs>
    <style>
      .cls-1 {
        fill: #543c37;
      }
    </style>
  </defs>
  <g id="_レイヤー_1-2" data-name="レイヤー_1">
    <g>
      <path class="cls-1" d="M.58,8.09c-.34,0-.58-.7-.58-1.25,0-.34.1-.6.29-.67,1.75-.53,7.87-1.3,11.45-1.3h.58c.98.02,2.35,1.2,2.35,1.8,0,0-.84,7.49-6,13.39-.07.1-.22.12-.38.12-.53,0-1.34-.41-1.34-.89,0-.07.02-.17.07-.24,1.68-2.98,4.42-10.2,4.42-11.16,0-.34-.02-.41-1.18-.41-2.38,0-8.02.38-9.65.6h-.02ZM12.39,3.96c-.74,0-1.49-2.06-1.49-2.06,0-.46.65-.84,1.13-.84.58,0,1.75,1.34,1.75,1.78,0,.58-.82,1.13-1.39,1.13ZM15.6,3.38c-.72,0-1.49-1.99-1.49-2.09,0-.43.62-.82,1.1-.82.5,0,1.78,1.22,1.78,1.78s-.82,1.13-1.39,1.13Z"/>
      <path class="cls-1" d="M30,18.07c-1.18,0-2.59-.22-3.19-1.56-.79-1.8-1.25-4.15-1.25-6.38,0-.84.07-1.68.22-2.45.05-.24.48-.38.94-.38.5,0,1.03.17,1.06.5.29,3.07.72,6.17.94,7.18.14.7.67.84,2.57.84.46,0,.89-.02,1.25-.07h.05c.29,0,.41.46.41.91,0,.34-.07.7-.22.77-.82.46-1.8.65-2.76.65ZM35.16,17.28c-.53,0-1.22-.29-1.22-.7v-.07c.53-2.62,1.37-7.18,1.44-7.44v-.07c0-.17-.14-.26-.29-.26-1.63,0-5.06.26-5.83.29-.26,0-.48-.62-.48-1.13,0-.29.07-.55.26-.62.7-.24,4.44-.94,6.41-.94.19,0,.36,0,.53.02.67.07,2.23,1.03,2.23,2.04,0,2.62-1.73,7.13-2.52,8.67-.07.14-.29.22-.53.22Z"/>
      <path class="cls-1" d="M50.02,13.06c-.07,0-1.15,0-1.15-.62,0-1.66,1.51-7.87,2.23-8.98.1-.17.41-.24.77-.24.74,0,1.75.34,1.75.98,0,.79-2.33,7.54-2.95,8.64-.07.14-.36.22-.65.22ZM54.86,20.38c-.53,0-1.3-.43-1.3-.84,0-.1.05-.17.1-.24,2.18-2.66,5.66-11.74,5.66-12.17,0-.07-.02-.31-.86-.31-1.18,0-3.19.24-3.86.24-.31,0-.53-.65-.53-1.15,0-.31.07-.55.26-.62.65-.22,3.53-.74,5.35-.74.31,0,.58.02.82.05.67.1,1.82,1.08,1.82,1.85,0,1.25-2.02,8.52-7.06,13.8-.1.1-.24.14-.41.14ZM61.49,3.58c-.77,0-1.51-2.02-1.51-2.06,0-.46.65-.84,1.13-.84.55,0,1.75,1.42,1.75,1.8,0,.58-.82,1.1-1.37,1.1ZM64.56,2.9c-.72,0-1.49-1.99-1.49-2.09,0-.43.62-.82,1.1-.82.5,0,1.78,1.22,1.78,1.78s-.82,1.13-1.39,1.13Z"/>
      <path class="cls-1" d="M72.38,12.02c-.36-2.59-.67-5.5-.67-8.14,0-.72.46-.91,1.13-.91.24,0,.46.05.7.12.36.1.43.46.48.79.19,1.34.38,2.66.55,4.01l.53,4.39.48,3.98c.05.34.22.67.62.67,1.08,0,2.16-.02,3.24-.12.55-.05,1.13-.1,1.68-.19.07-.02.14-.02.22-.02.62,0,.72.77.72,1.25,0,.17-.02.46-.17.58-.05.05-.7.31-.77.31-.62.1-1.27.22-1.92.26-.55.05-1.15.07-1.7.07-.72,0-1.42-.05-2.14-.07-.53-.02-1.27-.12-1.63-.55-.29-.34-.6-1.13-.65-1.54l-.7-4.9ZM83.33,17.93c.17-4.42.7-8.83,1.13-13.22-.1-.36-.31-.29-.58-.29-.53,0-1.03-.05-1.56-.05-1.03,0-2.09.05-3.12.1-.77.02-1.54.14-2.3.29-.24.05-.86.22-1.06.22-.5,0-.65-.46-.65-.89,0-.22.02-.46.1-.67.1-.26.31-.31.55-.36,1.15-.29,2.3-.58,3.5-.65,1.1-.07,2.23-.19,3.34-.19.67,0,1.32.05,1.97.1.07-.34.46-.48.77-.48.38,0,1.01.1,1.37.22.46.14.53.6.55,1.03-.02.1-.02.19-.02.29-.02,1.61-.12,3.19-.26,4.8-.12,1.58-.26,3.17-.48,4.75-.22,1.66-.48,3.38-.89,5.02-.05.22-.12.38-.29.53-.12.1-.58.17-.72.17-.48,0-1.37.05-1.34-.62v-.07ZM79.7,11.57c-.38.02-.79.05-1.18.05-.53,0-1.06,0-1.58-.05-.34-.02-.34-.89-.34-1.1,0-.26.02-1.08.41-1.13.82-.12,2.06-.14,2.93-.14.58,0,1.13.05,1.7.12.46.05.46.65.46,1.01,0,.26-.02,1.06-.41,1.08l-1.99.17Z"/>
      <path class="cls-1" d="M97.56,10.63c-1.01.07-2.04.12-3.05.12-.31,0-.36-1.06-.36-1.27,0-.19.02-.67.26-.74.62-.17,2.38-.34,3.07-.38v-.05l-.07-3.89c-.53.07-1.01.19-1.51.29l-1.97.41h-.05c-.31,0-.53-1.15-.53-1.34,0-.17.05-.34.22-.38,1.34-.34,2.66-.62,3.96-1.1,1.51-.58,3.07-.86,4.68-.86.38,0,.79.05,1.18.05.48,0,.5,1.01.5,1.32,0,.26-.02.77-.36.82-.77.1-1.54.19-2.3.29-.48.07-.94.12-1.42.19l.17,2.35c.05.58.02,1.15.05,1.73.7-.02,1.39-.07,2.11-.07.98,0,1.34-.07,1.34,1.13,0,.29-.02.67-.34.77-.74.22-2.21.36-3,.46.07,1.63.14,3.26.14,4.9,0,1.49-.02,3.05-.19,4.54-.05.34-.43.34-.7.34-.12,0-.26.02-.38.07-.02-.02-.07-.02-.12-.02-.24,0-.53,0-.62-.29-.19-.5-.41-3.36-.48-4.03-.34.22-3.05,2.06-3.34,2.06-.46,0-1.03-.94-1.03-1.34,0-.12.02-.17.1-.24.43-.48,1.44-1.18,1.97-1.56.7-.5,1.39-.98,2.14-1.42l-.07-2.81ZM102.22,15.91c-.19,0-.38-.05-.55-.12-.34-.17-.58-1.54-.58-1.92,0-.07-.02-.14,0-.22.07-.38,1.08-.55,1.42-.55.29,0,1.06.02,1.27.26.12.14.12.41.12.58,0,.24-.02.48-.05.72-.17,1.22-.46,1.25-1.63,1.25ZM108.1,16.73c-.7,0-2.62-.1-3.1-.62-.24-.26-.31-.79-.31-1.13,0-.91.1-1.85.17-2.76.17-1.92.41-3.94.89-5.81.1-.41.74-.43,1.08-.43.29,0,.94,0,.94.43,0,.58-.07,1.15-.12,1.7-.1,1.34-.24,2.69-.41,4.01-.1.74-.24,1.58-.24,2.33,0,.19.07.43.29.48.29.07.7.02,1.01.02.67,0,1.3-.12,1.97-.24h.12c.48,0,.67.84.67,1.22,0,.14-.05.29-.14.38-.26.26-2.23.41-2.81.41ZM112.71,16.15c-.14,0-.29,0-.43-.02-.24-.05-.29-.24-.34-.46-.29-1.3-.53-2.59-.74-3.91-.12-.72-.17-1.44-.26-2.16-.07-.58-.22-1.15-.29-1.73-.02-.17-.02-.34-.24-.34-.05,0-.1.02-.14.02-.36.05-.7.07-1.06.17-.02,0-.19.05-.19.05-.55,0-.5-.89-.5-1.27,0-.24.1-.41.34-.46.6-.12,1.2-.22,1.82-.26.12-.1.22-.19.31-.29.12-.12.74-.14.91-.14.34,0,.72.07.84.41.17.43.24.89.31,1.34.12.79.24,1.58.36,2.38.22,1.54.41,3.1.41,4.66,0,.5-.02,1.03-.05,1.54-.02.48-.72.48-1.06.48Z"/>
    </g>
  </g>
</svg>