<?xml version="1.0" encoding="UTF-8"?>
<svg id="_レイヤー_2" data-name="レイヤー_2" xmlns="http://www.w3.org/2000/svg" viewBox="0 0 84.67 145.21">
  <defs>
    <style>
      .cls-1 {
        fill: #bcd7bd;
      }

      .cls-2 {
        fill: none;
        stroke: #231815;
        stroke-miterlimit: 10;
      }
    </style>
  </defs>
  <g id="_レイヤー_1-2" data-name="レイヤー_1">
    <path class="cls-1" d="M66.2,113.08c-1.86-15.51-.13-35.9,18.47-39.48-17.29-6.78-21.02-21.02-15.59-36.61C48.4,32.25,38.61,14.92,42.34,0,34.88,16.61,6.44,10.42,0,3.3c5.76,14.92,13.83,47.59,1.28,55.04,18.98,5.76,20,30.85,11.86,39.32,16.27.34,19.81,1.52,33.2,12.03s26.79,35.52,26.79,35.52c0,0-5.09-16.63-6.95-32.14Z"/>
    <path class="cls-2" d="M61.53,113.37S35.4,32.8,25.99,23.38"/>
    <path class="cls-2" d="M45.72,30.67c-6.38,0-8.86,14.6-8.86,14.6,0,0-12.2-11.83-20.59-7.3"/>
    <path class="cls-2" d="M58.48,57.39c-10.93,0-11.22,14.55-11.22,14.55,0,0-14.29-7.87-23.4-3.62"/>
  </g>
</svg>