<?xml version="1.0" encoding="UTF-8"?>
<svg id="_レイヤー_2" data-name="レイヤー_2" xmlns="http://www.w3.org/2000/svg" viewBox="0 0 367.12 240.13">
  <defs>
    <style>
      .cls-1 {
        fill: #9d857f;
      }

      .cls-2 {
        fill: #543c37;
      }

      .cls-3 {
        fill: #d0cec4;
      }

      .cls-4 {
        fill: #656562;
      }

      .cls-5 {
        fill: #fff;
      }

      .cls-6 {
        fill: #cb8d81;
      }

      .cls-7 {
        fill: #cbe5e3;
      }
    </style>
  </defs>
  <g id="_レイヤー_2-2" data-name="レイヤー_2">
    <path class="cls-7" d="M15.09,106.42c15.7-24.84,18.96-58.16,45.6-78.55C87.33,7.48,137.34,0,183.98,0c36.61,0,85.54,4.09,113.2,16.56,42.81,19.3,37.24,59.29,55.68,89.86,45.8,75.93-20.91,99.12-168.88,106.42-143.59,7.08-217.97-28.75-168.88-106.42Z"/>
    <polygon class="cls-3" points="144.69 136.65 183.31 101.06 221.92 136.65 221.92 177.56 144.69 177.56 144.69 136.65"/>
    <g>
      <path class="cls-2" d="M128.45,52.76c-.34,0-.58-.7-.58-1.25,0-.34.1-.6.29-.67,1.75-.53,7.87-1.3,11.45-1.3h.58c.98.02,2.35,1.2,2.35,1.8,0,0-.84,7.49-6,13.39-.07.1-.22.12-.38.12-.53,0-1.34-.41-1.34-.89,0-.07.02-.17.07-.24,1.68-2.98,4.42-10.2,4.42-11.16,0-.34-.02-.41-1.18-.41-2.38,0-8.02.38-9.65.6h-.02ZM140.26,48.64c-.74,0-1.49-2.06-1.49-2.06,0-.46.65-.84,1.13-.84.58,0,1.75,1.34,1.75,1.78,0,.58-.82,1.13-1.39,1.13ZM143.47,48.06c-.72,0-1.49-1.99-1.49-2.09,0-.43.62-.82,1.1-.82.5,0,1.78,1.22,1.78,1.78s-.82,1.13-1.39,1.13Z"/>
      <path class="cls-2" d="M157.87,62.75c-1.18,0-2.59-.22-3.19-1.56-.79-1.8-1.25-4.15-1.25-6.38,0-.84.07-1.68.22-2.45.05-.24.48-.38.94-.38.5,0,1.03.17,1.06.5.29,3.07.72,6.17.94,7.18.14.7.67.84,2.57.84.46,0,.89-.02,1.25-.07h.05c.29,0,.41.46.41.91,0,.34-.07.7-.22.77-.82.46-1.8.65-2.76.65ZM163.03,61.96c-.53,0-1.22-.29-1.22-.7v-.07c.53-2.62,1.37-7.18,1.44-7.44v-.07c0-.17-.14-.26-.29-.26-1.63,0-5.06.26-5.83.29-.26,0-.48-.62-.48-1.13,0-.29.07-.55.26-.62.7-.24,4.44-.94,6.41-.94.19,0,.36,0,.53.02.67.07,2.23,1.03,2.23,2.04,0,2.62-1.73,7.13-2.52,8.67-.07.14-.29.22-.53.22Z"/>
      <path class="cls-2" d="M177.89,57.73c-.07,0-1.15,0-1.15-.62,0-1.66,1.51-7.87,2.23-8.98.1-.17.41-.24.77-.24.74,0,1.75.34,1.75.98,0,.79-2.33,7.54-2.95,8.64-.07.14-.36.22-.65.22ZM182.74,65.05c-.53,0-1.3-.43-1.3-.84,0-.1.05-.17.1-.24,2.18-2.66,5.66-11.74,5.66-12.17,0-.07-.02-.31-.86-.31-1.18,0-3.19.24-3.86.24-.31,0-.53-.65-.53-1.15,0-.31.07-.55.26-.62.65-.22,3.53-.74,5.35-.74.31,0,.58.02.82.05.67.1,1.82,1.08,1.82,1.85,0,1.25-2.02,8.52-7.06,13.8-.1.1-.24.14-.41.14ZM189.36,48.25c-.77,0-1.51-2.02-1.51-2.06,0-.46.65-.84,1.13-.84.55,0,1.75,1.42,1.75,1.8,0,.58-.82,1.1-1.37,1.1ZM192.43,47.58c-.72,0-1.49-1.99-1.49-2.09,0-.43.62-.82,1.1-.82.5,0,1.78,1.22,1.78,1.78s-.82,1.13-1.39,1.13Z"/>
      <path class="cls-2" d="M200.26,56.7c-.36-2.59-.67-5.5-.67-8.14,0-.72.46-.91,1.13-.91.24,0,.46.05.7.12.36.1.43.46.48.79.19,1.34.38,2.66.55,4.01l.53,4.39.48,3.98c.05.34.22.67.62.67,1.08,0,2.16-.02,3.24-.12.55-.05,1.13-.1,1.68-.19.07-.02.14-.02.22-.02.62,0,.72.77.72,1.25,0,.17-.02.46-.17.58-.05.05-.7.31-.77.31-.62.1-1.27.22-1.92.26-.55.05-1.15.07-1.7.07-.72,0-1.42-.05-2.14-.07-.53-.02-1.27-.12-1.63-.55-.29-.34-.6-1.13-.65-1.54l-.7-4.9ZM211.2,62.61c.17-4.42.7-8.83,1.13-13.23-.1-.36-.31-.29-.58-.29-.53,0-1.03-.05-1.56-.05-1.03,0-2.09.05-3.12.1-.77.02-1.54.14-2.3.29-.24.05-.86.22-1.06.22-.5,0-.65-.46-.65-.89,0-.22.02-.46.1-.67.1-.26.31-.31.55-.36,1.15-.29,2.3-.58,3.5-.65,1.1-.07,2.23-.19,3.34-.19.67,0,1.32.05,1.97.1.07-.34.46-.48.77-.48.38,0,1.01.1,1.37.22.46.14.53.6.55,1.03-.02.1-.02.19-.02.29-.02,1.61-.12,3.19-.26,4.8-.12,1.58-.26,3.17-.48,4.75-.22,1.66-.48,3.38-.89,5.02-.05.22-.12.38-.29.53-.12.1-.58.17-.72.17-.48,0-1.37.05-1.34-.62v-.07ZM207.58,56.24c-.38.02-.79.05-1.18.05-.53,0-1.06,0-1.58-.05-.34-.02-.34-.89-.34-1.1,0-.26.02-1.08.41-1.13.82-.12,2.06-.14,2.93-.14.58,0,1.13.05,1.7.12.46.05.46.65.46,1.01,0,.26-.02,1.06-.41,1.08l-1.99.17Z"/>
      <path class="cls-2" d="M225.43,55.31c-1.01.07-2.04.12-3.05.12-.31,0-.36-1.06-.36-1.27,0-.19.02-.67.26-.74.62-.17,2.38-.34,3.07-.38v-.05l-.07-3.89c-.53.07-1.01.19-1.51.29l-1.97.41h-.05c-.31,0-.53-1.15-.53-1.34,0-.17.05-.34.22-.38,1.34-.34,2.66-.62,3.96-1.1,1.51-.58,3.07-.86,4.68-.86.38,0,.79.05,1.18.05.48,0,.5,1.01.5,1.32,0,.26-.02.77-.36.82-.77.1-1.54.19-2.3.29-.48.07-.94.12-1.42.19l.17,2.35c.05.58.02,1.15.05,1.73.7-.02,1.39-.07,2.11-.07.98,0,1.34-.07,1.34,1.13,0,.29-.02.67-.34.77-.74.22-2.21.36-3,.46.07,1.63.14,3.26.14,4.9,0,1.49-.02,3.05-.19,4.54-.05.34-.43.34-.7.34-.12,0-.26.02-.38.07-.02-.02-.07-.02-.12-.02-.24,0-.53,0-.62-.29-.19-.5-.41-3.36-.48-4.03-.34.22-3.05,2.06-3.34,2.06-.46,0-1.03-.94-1.03-1.34,0-.12.02-.17.1-.24.43-.48,1.44-1.18,1.97-1.56.7-.5,1.39-.98,2.14-1.42l-.07-2.81ZM230.09,60.59c-.19,0-.38-.05-.55-.12-.34-.17-.58-1.54-.58-1.92,0-.07-.02-.14,0-.22.07-.38,1.08-.55,1.42-.55.29,0,1.06.02,1.27.26.12.14.12.41.12.58,0,.24-.02.48-.05.72-.17,1.22-.46,1.25-1.63,1.25ZM235.97,61.41c-.7,0-2.62-.1-3.1-.62-.24-.26-.31-.79-.31-1.13,0-.91.1-1.85.17-2.76.17-1.92.41-3.94.89-5.81.1-.41.74-.43,1.08-.43.29,0,.94,0,.94.43,0,.58-.07,1.15-.12,1.7-.1,1.34-.24,2.69-.41,4.01-.1.74-.24,1.58-.24,2.33,0,.19.07.43.29.48.29.07.7.02,1.01.02.67,0,1.3-.12,1.97-.24h.12c.48,0,.67.84.67,1.22,0,.14-.05.29-.14.38-.26.26-2.23.41-2.81.41ZM240.58,60.83c-.14,0-.29,0-.43-.02-.24-.05-.29-.24-.34-.46-.29-1.3-.53-2.59-.74-3.91-.12-.72-.17-1.44-.26-2.16-.07-.58-.22-1.15-.29-1.73-.02-.17-.02-.34-.24-.34-.05,0-.1.02-.14.02-.36.05-.7.07-1.06.17-.02,0-.19.05-.19.05-.55,0-.5-.89-.5-1.27,0-.24.1-.41.34-.46.6-.12,1.2-.22,1.82-.26.12-.1.22-.19.31-.29.12-.12.74-.14.91-.14.34,0,.72.07.84.41.17.43.24.89.31,1.34.12.79.24,1.58.36,2.38.22,1.54.41,3.1.41,4.66,0,.5-.02,1.03-.05,1.54-.02.48-.72.48-1.06.48Z"/>
    </g>
  </g>
  <g id="_レイヤー_1-2" data-name="レイヤー_1">
    <g>
      <path class="cls-5" d="M328.16,126.82c8.62,14.23,23.78,27.48,23.78,27.48,0,0-15.91-.5-22.16-1.41s-17.54-4.35-17.54-4.35c0,0-11.37,3.4-18.95,4.5s-20.75,1.26-20.75,1.26c0,0,13.37-14.06,22.84-27.48,16.11.15,20.78-.16,32.78,0Z"/>
      <path class="cls-5" d="M326.42,105.47c7.67,14.23,21.17,27.48,21.17,27.48,0,0-14.16-.5-19.73-1.41s-15.62-4.35-15.62-4.35c0,0-10.13,3.4-16.87,4.5-6.74,1.1-18.48,1.26-18.48,1.26,0,0,11.9-14.06,20.33-27.48,14.35.15,18.5-.16,29.18,0Z"/>
      <path class="cls-5" d="M325.17,79.04c5.75,12.44,17.48,32.34,17.48,32.34,0,0-12.19-.5-16.98-1.41-4.79-.91-13.44-4.35-13.44-4.35,0,0-8.71,3.4-14.52,4.5s-15.9,1.26-15.9,1.26c0,0,12.33-21.23,17.16-30.97,4.83-9.74,13.26-37.5,13.26-41.22s7.19,27.42,12.93,39.85Z"/>
    </g>
    <path class="cls-1" d="M312.24,84.08c1.98,0,1.98,93.48,1.98,93.48h-3.96s0-93.48,1.98-93.48Z"/>
    <rect class="cls-3" x="201.65" y="105.06" width="14.6" height="25.18"/>
    <g>
      <path class="cls-5" d="M274.99,135.61c5.91,9.76,16.31,18.85,16.31,18.85,0,0-10.91-.35-15.2-.97s-12.03-2.98-12.03-2.98c0,0-7.8,2.33-13,3.08s-14.24.86-14.24.86c0,0,9.17-9.64,15.67-18.85,11.05.1,14.25-.11,22.49,0Z"/>
      <path class="cls-5" d="M273.8,120.97c5.26,9.76,14.52,18.85,14.52,18.85,0,0-9.71-.35-13.53-.97s-10.71-2.98-10.71-2.98c0,0-6.95,2.33-11.57,3.08s-12.67.86-12.67.86c0,0,8.16-9.64,13.95-18.85,9.84.1,12.69-.11,20.02,0Z"/>
      <path class="cls-5" d="M272.94,102.84c3.94,8.53,11.99,22.18,11.99,22.18,0,0-8.36-.35-11.64-.97-3.28-.62-9.22-2.98-9.22-2.98,0,0-5.98,2.33-9.96,3.08-3.98.75-10.91.86-10.91.86,0,0,8.46-14.56,11.77-21.24s9.1-25.73,9.1-28.28,4.93,18.81,8.87,27.34Z"/>
    </g>
    <path class="cls-1" d="M264.07,105.06c1.55,0,1.55,73.2,1.55,73.2h-3.1s0-73.2,1.55-73.2Z"/>
    <path class="cls-5" d="M38.45,129.04c-8.62,14.23-23.78,27.48-23.78,27.48,0,0,15.91-.5,22.16-1.41s17.54-4.35,17.54-4.35c0,0,11.37,3.4,18.95,4.5,7.57,1.1,20.75,1.26,20.75,1.26,0,0-13.37-14.06-22.84-27.48-16.11.15-20.78-.16-32.78,0Z"/>
    <path class="cls-5" d="M40.2,107.68c-7.67,14.23-21.17,27.48-21.17,27.48,0,0,14.16-.5,19.73-1.41,5.56-.91,15.62-4.35,15.62-4.35,0,0,10.13,3.4,16.87,4.5,6.74,1.1,18.48,1.26,18.48,1.26,0,0-11.9-14.06-20.33-27.48-14.35.15-18.5-.16-29.18,0Z"/>
    <path class="cls-5" d="M41.44,81.26c-5.75,12.44-17.48,32.34-17.48,32.34,0,0,12.19-.5,16.98-1.41s13.44-4.35,13.44-4.35c0,0,8.71,3.4,14.52,4.5,5.8,1.1,15.9,1.26,15.9,1.26,0,0-12.33-21.23-17.16-30.97s-13.26-37.5-13.26-41.22-7.19,27.42-12.93,39.85Z"/>
    <path class="cls-1" d="M54.38,86.29c-1.98,0-1.98,93.48-1.98,93.48h3.96s0-93.48-1.98-93.48Z"/>
    <g>
      <path class="cls-5" d="M91.62,137.83c-5.91,9.76-16.31,18.85-16.31,18.85,0,0,10.91-.35,15.2-.97s12.03-2.98,12.03-2.98c0,0,7.8,2.33,13,3.08s14.24.86,14.24.86c0,0-9.17-9.64-15.67-18.85-11.05.1-14.25-.11-22.49,0Z"/>
      <path class="cls-5" d="M92.82,123.18c-5.26,9.76-14.52,18.85-14.52,18.85,0,0,9.71-.35,13.53-.97s10.71-2.98,10.71-2.98c0,0,6.95,2.33,11.57,3.08s12.67.86,12.67.86c0,0-8.16-9.64-13.95-18.85-9.84.1-12.69-.11-20.02,0Z"/>
      <path class="cls-5" d="M93.67,105.05c-3.94,8.53-11.99,22.18-11.99,22.18,0,0,8.36-.35,11.64-.97s9.22-2.98,9.22-2.98c0,0,5.98,2.33,9.96,3.08,3.98.75,10.91.86,10.91.86,0,0-8.46-14.56-11.77-21.24s-9.1-25.73-9.1-28.28-4.93,18.81-8.87,27.34Z"/>
    </g>
    <path class="cls-1" d="M102.54,107.27c-1.55,0-1.55,73.2-1.55,73.2h3.1s0-73.2-1.55-73.2Z"/>
    <polygon class="cls-5" points="228.44 138.56 183.73 97.51 183.73 97.51 183.31 97.11 182.89 97.5 182.89 97.5 138.17 138.55 140.76 140.43 183.3 101.37 225.85 140.43 228.44 138.56"/>
    <rect class="cls-1" x="155.05" y="143.47" width="13.14" height="14.72"/>
    <rect class="cls-1" x="199.02" y="143.47" width="13.14" height="14.72"/>
    <rect class="cls-1" x="174.95" y="145.02" width="16.72" height="29.86"/>
    <g>
      <ellipse class="cls-5" cx="264.07" cy="188.45" rx="29.73" ry="16.1"/>
      <ellipse class="cls-5" cx="312.24" cy="181.12" rx="29.73" ry="16.1"/>
      <path class="cls-5" d="M235.62,183.77c6.82-11.69,19.98-7.36,48.18-7.36s43.2-12.99,53.36-4.06c20.47,17.98,3.87,51.89-46.27,55.33-38.72,2.65-66.41-24.81-55.28-43.91Z"/>
      <ellipse class="cls-5" cx="102.54" cy="190.66" rx="29.73" ry="16.1"/>
      <ellipse class="cls-5" cx="54.38" cy="183.34" rx="29.73" ry="16.1"/>
      <path class="cls-5" d="M130.99,185.98c-6.82-11.69-19.98-7.36-48.18-7.36s-43.2-12.99-53.36-4.06c-20.47,17.98-3.87,51.89,46.27,55.33,38.72,2.65,66.41-24.81,55.28-43.91Z"/>
      <path class="cls-5" d="M290.9,227.67s-100.71,26.5-215.18,2.21c14-23.13,124.32-65.23,215.18-2.21Z"/>
      <ellipse class="cls-5" cx="183.31" cy="199.34" rx="80.04" ry="26.99"/>
    </g>
    <rect class="cls-7" x="157.19" y="145.43" width="8.85" height="10.81"/>
    <rect class="cls-7" x="201.2" y="145.38" width="8.85" height="10.81"/>
    <rect class="cls-1" x="160.95" y="144.92" width="1.34" height="11.82"/>
    <rect class="cls-1" x="204.95" y="144.87" width="1.34" height="11.82"/>
    <rect class="cls-1" x="156.19" y="150.37" width="10.87" height="1.28"/>
    <rect class="cls-1" x="199.52" y="150.37" width="10.87" height="1.28"/>
    <rect class="cls-6" x="177.75" y="147.76" width="11.27" height="24.59"/>
    <circle class="cls-4" cx="187.24" cy="160.05" r="1.09"/>
    <rect class="cls-5" x="200.44" y="102.37" width="17.37" height="2.69"/>
  </g>
</svg>