<?xml version="1.0" encoding="UTF-8"?>
<svg id="_レイヤー_2" data-name="レイヤー_2" xmlns="http://www.w3.org/2000/svg" viewBox="0 0 405.84 150.05">
  <defs>
    <style>
      .cls-1 {
        opacity: .48;
      }

      .cls-2 {
        fill: #8bb0bc;
      }

      .cls-3 {
        fill: #e6e8e7;
      }
    </style>
  </defs>
  <g id="_レイヤー_1-2" data-name="レイヤー_1">
    <g class="cls-1">
      <path class="cls-3" d="M10.82,24.35h0s13.26,12.8,13.26,12.8l13.26-12.8.07.06.07-.06,13.21,12.76,13.23-12.77.02.02h0s.03.03.03.03l.03-.03h0s0,0,0,0l3.53,3.41h0s9.7,9.36,9.7,9.36l13.23-12.78.07.06.07-.06,13.26,12.8,9.73-9.39h0s3.53-3.41,3.53-3.41h0s0,0,0,0l3.53,3.41h0s9.7,9.37,9.7,9.37l13.25-12.79.02.02h0s13.26,12.8,13.26,12.8l13.26-12.8.07.06.07-.06,13.26,12.8,2.52-2.43h0s0-.02,0-.03l10.73-10.36.02.02h0s13.26,12.8,13.26,12.8l13.26-12.8.07.06.07-.06,13.21,12.76,13.23-12.77.02.02h0s.03.03.03.03l.03-.03h0s0,0,0,0l3.53,3.41h0s9.7,9.36,9.7,9.36l13.23-12.78.07.06.07-.06,13.26,12.8,9.73-9.39h0s3.53-3.41,3.53-3.41h0s0,0,0,0l3.53,3.41h0s9.7,9.37,9.7,9.37l13.25-12.79.02.02h0s13.26,12.8,13.26,12.8l13.26-12.8.07.06.07-.06,13.26,12.8,9.73-9.39h0s3.53-3.41,3.53-3.41h0s0,0,0,0l3.53,3.41h0s9.73,9.39,9.73,9.39l9.86-9.52v-13.98l-6.32,6.1h.01s-3.53,3.42-3.53,3.42h-.01s-.01,0-.01,0l-3.53-3.41h.01s-9.73-9.4-9.73-9.4l-9.73,9.39h.01s-3.53,3.42-3.53,3.42h-.01s-.01,0-.01,0l-3.53-3.41h.01s-9.79-9.47-9.79-9.47l-9.79,9.46h.01s-3.53,3.42-3.53,3.42h-.01s-.01,0-.01,0l-3.53-3.41h.01s-9.75-9.42-9.75-9.42l-3.38,3.26v.05l-6.32,6.1h.01s-3.53,3.42-3.53,3.42h-.01s-.01,0-.01,0h-.02s0-.01,0-.01h-.01s-.01,0-.01,0l-3.53-3.41h.01s-6.33-6.12-6.33-6.12v-.02l-3.36-3.24-9.73,9.39h.01s-3.53,3.42-3.53,3.42h-.01s-.01,0-.01,0l-3.53-3.41h.01s-9.79-9.47-9.79-9.47l-3.42,3.3v.06l-6.32,6.1h.01s-3.53,3.42-3.53,3.42h-.01s-.01,0-.01,0l-.02-.02-.02.02h-.01s-.01,0-.01,0l-3.53-3.41h.01s-9.7-9.37-9.7-9.37l-9.7,9.36h.01s-3.53,3.42-3.53,3.42h-.01s-.01,0-.01,0l-.04-.04-.02.02h-.01s-.01,0-.01,0l-3.53-3.41h.01s-6.33-6.12-6.33-6.12v-.07l-3.38-3.27-9.79,9.46h.01s-3.53,3.42-3.53,3.42h-.01s-.01,0-.01,0l-3.53-3.41h.01s-9.75-9.42-9.75-9.42h0l-9.73,9.4h.01s-.98.96-.98.96v.04l-2.53,2.44h-.01s-.01,0-.01,0l-3.53-3.41h.01s-9.79-9.47-9.79-9.47l-9.79,9.46h.01s-3.53,3.42-3.53,3.42h-.01s-.01,0-.01,0l-3.53-3.41h.01s-9.75-9.42-9.75-9.42l-3.38,3.26v.05l-6.32,6.1h.01s-3.53,3.42-3.53,3.42h-.01s-.01,0-.01,0h-.02s0-.01,0-.01h-.01s-.01,0-.01,0l-3.53-3.41h.01s-6.33-6.12-6.33-6.12v-.02l-3.36-3.24-9.73,9.39h.01s-3.53,3.42-3.53,3.42h-.01s-.01,0-.01,0l-3.53-3.41h.01s-9.79-9.47-9.79-9.47l-3.42,3.3v.06l-6.32,6.1h.01s-3.53,3.42-3.53,3.42h-.01s-.01,0-.01,0l-.02-.02-.02.02h-.01s-.01,0-.01,0l-3.53-3.41h.01s-9.7-9.37-9.7-9.37l-9.7,9.36h.01s-3.53,3.42-3.53,3.42h-.01s-.01,0-.01,0l-.04-.04-.02.02h-.01s-.01,0-.01,0l-3.53-3.41h.01s-6.33-6.12-6.33-6.12v-.07l-3.38-3.27-9.79,9.46h.01s-3.53,3.42-3.53,3.42h-.01s-.01,0-.01,0l-3.53-3.41h.01s-9.75-9.42-9.75-9.42h0L1.08,19.74h.01s-.98.96-.98.96v13.95l10.68-10.31.02.02Z"/>
      <path class="cls-3" d="M10.82,45.16l-3.53,3.41,3.53-3.41h0s13.26,12.8,13.26,12.8l13.26-12.8.07.06.07-.06,13.21,12.76,13.23-12.77.02.02h0s.03.03.03.03l.03-.03h0s0,0,0,0l3.53,3.41h0s9.7,9.36,9.7,9.36l13.23-12.78.07.06.07-.06,13.26,12.8,9.73-9.39h0s3.53-3.41,3.53-3.41h0s0,0,0,0l3.53,3.41h0s9.7,9.37,9.7,9.37l13.25-12.79.02.02h0s13.26,12.8,13.26,12.8l13.26-12.8.07.06.07-.06,13.26,12.8,2.53-2.45s0-.03,0-.04l10.7-10.33.02.02-3.53,3.41,3.53-3.41h0s13.26,12.8,13.26,12.8l13.26-12.8.07.06.07-.06,13.21,12.76,13.23-12.77.02.02h0s.03.03.03.03l.03-.03h0s0,0,0,0l3.53,3.41h0s9.7,9.36,9.7,9.36l13.23-12.78.07.06.07-.06,13.26,12.8,9.73-9.39h0s3.53-3.41,3.53-3.41h0s0,0,0,0l3.53,3.41h0s9.7,9.37,9.7,9.37l13.25-12.79.02.02h0s13.26,12.8,13.26,12.8l13.26-12.8.07.06.07-.06,13.26,12.8,9.73-9.39h0s3.53-3.41,3.53-3.41h0s0,0,0,0l3.53,3.41h0s9.73,9.39,9.73,9.39l9.86-9.52v-13.8l-6.32,6.1h.01s-3.53,3.42-3.53,3.42h-.01s-.01,0-.01,0l-3.53-3.41h.01s-9.73-9.4-9.73-9.4l-9.73,9.39h.01s-3.53,3.42-3.53,3.42h-.01s-.01,0-.01,0l-3.53-3.41h.01s-9.79-9.47-9.79-9.47l-9.79,9.46h.01s-3.53,3.42-3.53,3.42h-.01s-.01,0-.01,0l-3.53-3.41h.01s-9.75-9.42-9.75-9.42l-3.38,3.26v.05l-6.32,6.1h.01s-3.53,3.42-3.53,3.42h-.01s-.01,0-.01,0h-.02s0-.01,0-.01h-.01s-.01,0-.01,0l-3.53-3.41h.01s-6.33-6.12-6.33-6.12v-.02l-3.36-3.24-9.73,9.39h.01s-3.53,3.42-3.53,3.42h-.01s-.01,0-.01,0l-3.53-3.41h.01s-9.79-9.47-9.79-9.47l-3.42,3.3v.06l-6.32,6.1h.01s-3.53,3.42-3.53,3.42h-.01s-.01,0-.01,0l-.02-.02-.02.02h-.01s-.01,0-.01,0l-3.53-3.41h.01s-9.7-9.37-9.7-9.37l-9.7,9.36h.01s-3.53,3.42-3.53,3.42h-.01s-.01,0-.01,0l-.04-.04-.02.02h-.01s-.01,0-.01,0l-3.53-3.41h.01s-6.33-6.12-6.33-6.12v-.07l-3.38-3.27-9.79,9.46h.01s-3.53,3.42-3.53,3.42h-.01s-.01,0-.01,0l-3.53-3.41h.01s-9.75-9.42-9.75-9.42h0l-9.73,9.4h.01s-.98.96-.98.96v.04l-2.53,2.44h-.01s-.01,0-.01,0l-3.53-3.41h.01s-9.79-9.47-9.79-9.47l-9.79,9.46h.01s-3.53,3.42-3.53,3.42h-.01s-.01,0-.01,0l-3.53-3.41h.01s-9.75-9.42-9.75-9.42l-3.38,3.26v.05l-6.32,6.1h.01s-3.53,3.42-3.53,3.42h-.01s-.01,0-.01,0h-.02s0-.01,0-.01h-.01s-.01,0-.01,0l-3.53-3.41h.01s-6.33-6.12-6.33-6.12v-.02l-3.36-3.24-9.73,9.39h.01s-3.53,3.42-3.53,3.42h-.01s-.01,0-.01,0l-3.53-3.41h.01s-9.79-9.47-9.79-9.47l-3.42,3.3v.06l-6.32,6.1h.01s-3.53,3.42-3.53,3.42h-.01s-.01,0-.01,0l-.02-.02-.02.02h-.01s-.01,0-.01,0l-3.53-3.41h.01s-9.7-9.37-9.7-9.37l-9.7,9.36h.01s-3.53,3.42-3.53,3.42h-.01s-.01,0-.01,0l-.04-.04-.02.02h-.01s-.01,0-.01,0l-3.53-3.41h.01s-6.33-6.12-6.33-6.12v-.07l-3.38-3.27-9.79,9.46h.01s-3.53,3.42-3.53,3.42h-.01s-.01,0-.01,0l-3.53-3.41h.01s-9.75-9.42-9.75-9.42h0L1.08,40.73h.01s-.98.96-.98.96v13.78l10.68-10.31.02.02Z"/>
      <path class="cls-3" d="M.12,121.88c.03.79.06,1.58,0,2.37v.02c.06-.79.03-1.6,0-2.39Z"/>
      <path class="cls-3" d="M10.82,107.47h0s13.26,12.8,13.26,12.8l13.26-12.8.07.06.07-.06,13.21,12.76,13.23-12.77.02.02h0s.03.03.03.03l.03-.03h0s0,0,0,0l3.53,3.41h0s9.7,9.36,9.7,9.36l13.23-12.78.07.06.07-.06,13.26,12.8,9.73-9.39h0s3.53-3.41,3.53-3.41h0s0,0,0,0l3.53,3.41h0s9.7,9.37,9.7,9.37l13.25-12.79.02.02h0s13.26,12.8,13.26,12.8l13.26-12.8.07.06.07-.06,13.26,12.8,2.54-2.45s0-.03,0-.04l10.7-10.33.02.02h0s13.26,12.8,13.26,12.8l13.26-12.8.07.06.07-.06,13.21,12.76,13.23-12.77.02.02h0s.03.03.03.03l.03-.03h0s0,0,0,0l3.53,3.41h0s9.7,9.36,9.7,9.36l13.23-12.78.07.06.07-.06,13.26,12.8,9.73-9.39h0s3.53-3.41,3.53-3.41h0s0,0,0,0l3.53,3.41h0s9.7,9.37,9.7,9.37l13.25-12.79.02.02h0s13.26,12.8,13.26,12.8l13.26-12.8.07.06.07-.06,13.26,12.8,9.73-9.39h0s3.53-3.41,3.53-3.41h0s0,0,0,0l3.53,3.41h0s9.73,9.39,9.73,9.39l9.86-9.52v-13.98l-6.32,6.1h.01s-3.53,3.42-3.53,3.42h-.01s-.01,0-.01,0l-3.53-3.41h.01s-9.73-9.4-9.73-9.4l-9.73,9.39h.01s-3.53,3.42-3.53,3.42h-.01s-.01,0-.01,0l-3.53-3.41h.01s-9.79-9.47-9.79-9.47l-9.79,9.46h.01s-3.53,3.42-3.53,3.42h-.01s-.01,0-.01,0l-3.53-3.41h.01s-9.75-9.42-9.75-9.42l-3.38,3.26v.05l-6.32,6.1h.01s-3.53,3.42-3.53,3.42h-.01s-.01,0-.01,0h-.02s0-.01,0-.01h-.01s-.01,0-.01,0l-3.53-3.41h.01s-6.33-6.12-6.33-6.12v-.02l-3.36-3.24-9.73,9.39h.01s-3.53,3.42-3.53,3.42h-.01s-.01,0-.01,0l-3.53-3.41h.01s-9.79-9.47-9.79-9.47l-3.42,3.3v.06l-6.32,6.1h.01s-3.53,3.42-3.53,3.42h-.01s-.01,0-.01,0l-.02-.02-.02.02h-.01s-.01,0-.01,0l-3.53-3.41h.01s-9.7-9.37-9.7-9.37l-9.7,9.36h.01s-3.53,3.42-3.53,3.42h-.01s-.01,0-.01,0l-.04-.04-.02.02h-.01s-.01,0-.01,0l-3.53-3.41h.01s-6.33-6.12-6.33-6.12v-.07l-3.38-3.27-9.79,9.46h.01s-3.53,3.42-3.53,3.42h-.01s-.01,0-.01,0l-3.53-3.41h.01s-9.75-9.42-9.75-9.42h0l-9.73,9.4h.01s-.98.96-.98.96v.04l-2.53,2.44h-.01s-.01,0-.01,0l-3.53-3.41h.01s-9.79-9.47-9.79-9.47l-9.79,9.46h.01s-3.53,3.42-3.53,3.42h-.01s-.01,0-.01,0l-3.53-3.41h.01s-9.75-9.42-9.75-9.42l-3.38,3.26v.05l-6.32,6.1h.01s-3.53,3.42-3.53,3.42h-.01s-.01,0-.01,0h-.02s0-.01,0-.01h-.01s-.01,0-.01,0l-3.53-3.41h.01s-6.33-6.12-6.33-6.12v-.02l-3.36-3.24-9.73,9.39h.01s-3.53,3.42-3.53,3.42h-.01s-.01,0-.01,0l-3.53-3.41h.01s-9.79-9.47-9.79-9.47l-3.42,3.3v.06l-6.32,6.1h.01s-3.53,3.42-3.53,3.42h-.01s-.01,0-.01,0l-.02-.02-.02.02h-.01s-.01,0-.01,0l-3.53-3.41h.01s-9.7-9.37-9.7-9.37l-9.7,9.36h.01s-3.53,3.42-3.53,3.42h-.01s-.01,0-.01,0l-.04-.04-.02.02h-.01s-.01,0-.01,0l-3.53-3.41h.01s-6.33-6.12-6.33-6.12v-.07l-3.38-3.27-9.79,9.46h.01s-3.53,3.42-3.53,3.42h-.01s-.01,0-.01,0l-3.53-3.41h.01s-9.75-9.42-9.75-9.42h0l-9.73,9.4h.01s-.98.96-.98.96v13.95l10.68-10.31.02.02Z"/>
      <path class="cls-3" d="M10.8,66.13l.02.02-3.53,3.41,3.53-3.41h0s13.26,12.8,13.26,12.8l13.26-12.8.07.06.07-.06,13.21,12.76,13.23-12.77.02.02h0s.03.03.03.03l.03-.03h0s0,0,0,0l3.53,3.41h0s9.7,9.36,9.7,9.36l13.23-12.78.07.06.07-.06,13.26,12.8,9.73-9.39h0s3.53-3.41,3.53-3.41h0s0,0,0,0l3.53,3.41h0s9.7,9.37,9.7,9.37l13.25-12.79.02.02h0s13.26,12.8,13.26,12.8l13.26-12.8.07.06.07-.06,13.26,12.8,2.52-2.43s0-.03,0-.04l10.72-10.35.02.02-3.53,3.41,3.53-3.41h0s13.26,12.8,13.26,12.8l13.26-12.8.07.06.07-.06,13.21,12.76,13.23-12.77.02.02h0s.03.03.03.03l.03-.03h0s0,0,0,0l3.53,3.41h0s9.7,9.36,9.7,9.36l13.23-12.78.07.06.07-.06,13.26,12.8,9.73-9.39h0s3.53-3.41,3.53-3.41h0s0,0,0,0l3.53,3.41h0s9.7,9.37,9.7,9.37l13.25-12.79.02.02h0s13.26,12.8,13.26,12.8l13.26-12.8.07.06.07-.06,13.26,12.8,9.73-9.39h0s3.53-3.41,3.53-3.41h0s0,0,0,0l3.53,3.41h0s9.73,9.39,9.73,9.39l9.86-9.52v-13.99l-6.33,6.11h.01s-3.53,3.42-3.53,3.42h-.01s-.01,0-.01,0l-3.53-3.41h.01s-9.73-9.4-9.73-9.4l-9.73,9.39h.01s-3.53,3.42-3.53,3.42h-.01s-.01,0-.01,0l-3.53-3.41h.01s-9.79-9.47-9.79-9.47l-9.79,9.46h.01s-3.53,3.42-3.53,3.42h-.01s-.01,0-.01,0l-3.53-3.41h.01s-9.75-9.42-9.75-9.42l-3.36,3.25v.05l-6.33,6.11h.01s-3.53,3.42-3.53,3.42h-.01s-.01,0-.01,0h-.02s0-.01,0-.01h-.01s-.01,0-.01,0l-3.53-3.41h.01s-6.32-6.11-6.32-6.11v-.02l-3.37-3.25-9.73,9.39h.01s-3.53,3.42-3.53,3.42h-.01s-.01,0-.01,0l-3.53-3.41h.01s-9.79-9.47-9.79-9.47l-3.41,3.29v.06l-6.33,6.11h.01s-3.53,3.42-3.53,3.42h-.01s-.01,0-.01,0l-.02-.02-.02.02h-.01s-.01,0-.01,0l-3.53-3.41h.01s-9.7-9.37-9.7-9.37l-9.7,9.36h.01s-3.53,3.42-3.53,3.42h-.01s-.01,0-.01,0l-.04-.04-.02.02h-.01s-.01,0-.01,0l-3.53-3.41h.01s-6.32-6.11-6.32-6.11v-.07l-3.4-3.28-9.79,9.46h.01s-3.53,3.42-3.53,3.42h-.01s-.01,0-.01,0l-3.53-3.41h.01s-9.75-9.42-9.75-9.42l-9.73,9.4h.01s-.97.94-.97.94v.04l-2.54,2.45h-.01s-.01,0-.01,0l-3.53-3.41h.01s-9.79-9.47-9.79-9.47l-9.79,9.46h.01s-3.53,3.42-3.53,3.42h-.01s-.01,0-.01,0l-3.53-3.41h.01s-9.75-9.42-9.75-9.42l-3.36,3.25v.05l-6.33,6.11h.01s-3.53,3.42-3.53,3.42h-.01s-.01,0-.01,0l-.02-.02h0s-.01-.01-.01-.01h-.01s-3.53-3.4-3.53-3.4h.01s-6.32-6.11-6.32-6.11v-.02l-3.37-3.25-9.73,9.39h.01s-3.53,3.42-3.53,3.42h-.01s-.01,0-.01,0l-3.53-3.41h.01s-9.79-9.47-9.79-9.47l-3.41,3.29v.06l-6.33,6.11h.01s-3.53,3.42-3.53,3.42h-.01s-.01,0-.01,0l-.02-.02-.02.02h-.01s-.01,0-.01,0l-3.53-3.41h.01s-9.7-9.37-9.7-9.37l-9.7,9.36h.01s-3.53,3.42-3.53,3.42h-.01s-.01,0-.01,0l-.04-.04-.02.02h-.01s-.01,0-.01,0l-3.53-3.41h.01s-6.32-6.11-6.32-6.11v-.07l-3.4-3.28-9.79,9.46h.01s-3.53,3.42-3.53,3.42h-.01s-.01,0-.01,0l-3.53-3.41h.01s-9.75-9.42-9.75-9.42L1.07,61.54h.01s-.97.94-.97.94v13.97l10.68-10.31Z"/>
      <path class="cls-3" d="M10.82,128.28l-3.53,3.41,3.53-3.41h0s13.26,12.8,13.26,12.8l13.26-12.8.07.06.07-.06,13.21,12.76,13.23-12.77.02.02h0s.03.03.03.03l.03-.03h0s0,0,0,0l3.53,3.41h0s9.7,9.36,9.7,9.36l13.23-12.78.07.06.07-.06,13.26,12.8,9.73-9.39h0s3.53-3.41,3.53-3.41h0s0,0,0,0l3.53,3.41h0s9.7,9.37,9.7,9.37l13.25-12.79.02.02h0s13.26,12.8,13.26,12.8l13.26-12.8.07.06.07-.06,13.26,12.8,2.52-2.44s0-.03,0-.04l10.71-10.34.02.02-3.53,3.41,3.53-3.41h0s13.26,12.8,13.26,12.8l13.26-12.8.07.06.07-.06,13.21,12.76,13.23-12.77.02.02h0s.03.03.03.03l.03-.03h0s0,0,0,0l3.53,3.41h0s9.7,9.36,9.7,9.36l13.23-12.78.07.06.07-.06,13.26,12.8,9.73-9.39h0s3.53-3.41,3.53-3.41h0s0,0,0,0l3.53,3.41h0s9.7,9.37,9.7,9.37l13.25-12.79.02.02h0s13.26,12.8,13.26,12.8l13.26-12.8.07.06.07-.06,13.26,12.8,9.73-9.39h0s3.53-3.41,3.53-3.41h0s0,0,0,0l3.53,3.41h0s9.73,9.39,9.73,9.39l9.86-9.52v-13.99l-6.33,6.11h.01s-3.53,3.42-3.53,3.42h-.01s-.01,0-.01,0l-3.53-3.41h.01s-9.73-9.4-9.73-9.4l-9.73,9.39h.01s-3.53,3.42-3.53,3.42h-.01s-.01,0-.01,0l-3.53-3.41h.01s-9.79-9.47-9.79-9.47l-9.79,9.46h.01s-3.53,3.42-3.53,3.42h-.01s-.01,0-.01,0l-3.53-3.41h.01s-9.75-9.42-9.75-9.42l-3.36,3.25v.05l-6.33,6.11h.01s-3.53,3.42-3.53,3.42h-.01s-.01,0-.01,0h-.02s0-.01,0-.01h-.01s-.01,0-.01,0l-3.53-3.41h.01s-6.32-6.11-6.32-6.11v-.02l-3.37-3.25-9.73,9.39h.01s-3.53,3.42-3.53,3.42h-.01s-.01,0-.01,0l-3.53-3.41h.01s-9.79-9.47-9.79-9.47l-3.41,3.29v.06l-6.33,6.11h.01s-3.53,3.42-3.53,3.42h-.01s-.01,0-.01,0l-.02-.02-.02.02h-.01s-.01,0-.01,0l-3.53-3.41h.01s-9.7-9.37-9.7-9.37l-9.7,9.36h.01s-3.53,3.42-3.53,3.42h-.01s-.01,0-.01,0l-.04-.04-.02.02h-.01s-.01,0-.01,0l-3.53-3.41h.01s-6.32-6.11-6.32-6.11v-.07l-3.4-3.28-9.79,9.46h.01s-3.53,3.42-3.53,3.42h-.01s-.01,0-.01,0l-3.53-3.41h.01s-9.75-9.42-9.75-9.42l-9.73,9.4h.01s-.97.94-.97.94v.04l-2.54,2.45h-.01s-.01,0-.01,0l-3.53-3.41h.01s-9.79-9.47-9.79-9.47l-9.79,9.46h.01s-3.53,3.42-3.53,3.42h-.01s-.01,0-.01,0l-3.53-3.41h.01s-9.75-9.42-9.75-9.42l-3.36,3.25v.05l-6.33,6.11h.01s-3.53,3.42-3.53,3.42h-.01s-.01,0-.01,0l-.02-.02h0s-.01-.01-.01-.01h-.01s-3.53-3.4-3.53-3.4h.01s-6.32-6.11-6.32-6.11v-.02l-3.37-3.25-9.73,9.39h.01s-3.53,3.42-3.53,3.42h-.01s-.01,0-.01,0l-3.53-3.41h.01s-9.79-9.47-9.79-9.47l-3.41,3.29v.06l-6.33,6.11h.01s-3.53,3.42-3.53,3.42h-.01s-.01,0-.01,0l-.02-.02-.02.02h-.01s-.01,0-.01,0l-3.53-3.41h.01s-9.7-9.37-9.7-9.37l-9.7,9.36h.01s-3.53,3.42-3.53,3.42h-.01s-.01,0-.01,0l-.04-.04-.02.02h-.01s-.01,0-.01,0l-3.53-3.41h.01s-6.32-6.11-6.32-6.11v-.07l-3.4-3.28-9.79,9.46h.01s-3.53,3.42-3.53,3.42h-.01s-.01,0-.01,0l-3.53-3.41h.01s-9.75-9.42-9.75-9.42l-9.73,9.4h.01s-.97.94-.97.94v13.97l10.68-10.31.02.02Z"/>
      <polygon class="cls-3" points="7.36 48.64 7.29 48.57 7.36 48.64 7.36 48.64"/>
      <path class="cls-3" d="M10.81,86.65l.02.02-3.53,3.41h0s3.53-3.41,3.53-3.41h0s13.26,12.8,13.26,12.8l13.26-12.8.07.06.07-.06,13.21,12.76,13.23-12.77.02.02h0s.03.03.03.03l.03-.03h0s0,0,0,0l3.53,3.41h0s9.7,9.36,9.7,9.36l13.23-12.78.07.06.07-.06,13.26,12.8,9.73-9.39h0s3.53-3.41,3.53-3.41h0s0,0,0,0l3.53,3.41h0s9.7,9.37,9.7,9.37l13.25-12.79.02.02h0s13.26,12.8,13.26,12.8l13.26-12.8.07.06.07-.06,13.26,12.8,2.52-2.44s0-.03,0-.04l10.71-10.34.02.02-3.53,3.41h0s3.53-3.41,3.53-3.41h0s13.26,12.8,13.26,12.8l13.26-12.8.07.06.07-.06,13.21,12.76,13.23-12.77.02.02h0s.03.03.03.03l.03-.03h0s0,0,0,0l3.53,3.41h0s9.7,9.36,9.7,9.36l13.23-12.78.07.06.07-.06,13.26,12.8,9.73-9.39h0s3.53-3.41,3.53-3.41h0s0,0,0,0l3.53,3.41h0s9.7,9.37,9.7,9.37l13.25-12.79.02.02h0s13.26,12.8,13.26,12.8l13.26-12.8.07.06.07-.06,13.26,12.8,9.73-9.39h0s3.53-3.41,3.53-3.41h0s0,0,0,0l3.53,3.41h0s9.73,9.39,9.73,9.39l9.85-9.51v-13.7l-6.33,6.11h.01s-3.53,3.42-3.53,3.42h-.01s-.01,0-.01,0l-3.53-3.41h.01s-9.73-9.4-9.73-9.4l-9.73,9.39h.01s-3.53,3.42-3.53,3.42h-.01s-.01,0-.01,0l-3.53-3.41h.01s-9.79-9.47-9.79-9.47l-9.79,9.46h.01s-3.53,3.42-3.53,3.42h-.01s-.01,0-.01,0l-3.53-3.41h.01s-9.75-9.42-9.75-9.42l-3.36,3.25v.05l-6.33,6.11h.01s-3.53,3.42-3.53,3.42h-.01s-.01,0-.01,0h-.02s0-.01,0-.01h-.01s-.01,0-.01,0l-3.53-3.41h.01s-6.32-6.11-6.32-6.11v-.02l-3.37-3.25-9.73,9.39h.01s-3.53,3.42-3.53,3.42h-.01s-.01,0-.01,0l-3.53-3.41h.01s-9.79-9.47-9.79-9.47l-3.41,3.29v.06l-6.33,6.11h.01s-3.53,3.42-3.53,3.42h-.01s-.01,0-.01,0l-.02-.02-.02.02h-.01s-.01,0-.01,0l-3.53-3.41h.01s-9.7-9.37-9.7-9.37l-9.7,9.36h.01s-3.53,3.42-3.53,3.42h-.01s-.01,0-.01,0l-.04-.04-.02.02h-.01s-.01,0-.01,0l-3.53-3.41h.01s-6.32-6.11-6.32-6.11v-.07l-3.4-3.28-9.79,9.46h.01s-3.53,3.42-3.53,3.42h-.01s-.01,0-.01,0l-3.53-3.41h.01s-9.75-9.42-9.75-9.42l-3.52-3.39,3.52,3.39-9.73,9.4h.01s-.97.94-.97.94v.04l-2.54,2.45h-.01s-.01,0-.01,0l-3.53-3.41h.01s-9.79-9.47-9.79-9.47l-9.79,9.46h.01s-3.53,3.42-3.53,3.42h-.01s-.01,0-.01,0l-3.53-3.41h.01s-9.75-9.42-9.75-9.42l-3.36,3.25v.05l-6.33,6.11h.01s-3.53,3.42-3.53,3.42h-.01s-.01,0-.01,0h-.02s0-.01,0-.01h-.01s-.01,0-.01,0l-3.53-3.41h.01s-6.32-6.11-6.32-6.11v-.02l-3.37-3.25-9.73,9.39h.01s-3.53,3.42-3.53,3.42h-.01s-.01,0-.01,0l-3.53-3.41h.01s-9.79-9.47-9.79-9.47l-3.41,3.29v.06l-6.33,6.11h.01s-3.53,3.42-3.53,3.42h-.01s-.01,0-.01,0l-.02-.02-.02.02h-.01s-.01,0-.01,0l-3.53-3.41h.01s-9.7-9.37-9.7-9.37l-9.7,9.36h.01s-3.53,3.42-3.53,3.42h-.01s-.01,0-.01,0l-.04-.04-.02.02h-.01s-.01,0-.01,0l-3.53-3.41h.01s-6.32-6.11-6.32-6.11v-.07l-3.4-3.28-9.79,9.46h.01s-3.53,3.42-3.53,3.42h-.01s-.01,0-.01,0l-3.53-3.41h.01s-9.75-9.42-9.75-9.42l-3.52-3.39,3.52,3.39-9.73,9.4h.01s-.97.94-.97.94v13.68l10.7-10.33Z"/>
      <path class="cls-3" d="M10.83,3.54l-3.53,3.41,3.53-3.41h0s13.26,12.8,13.26,12.8l13.26-12.8.07.06.07-.06,13.21,12.76,13.23-12.77.02.02h0s.03.03.03.03l.03-.03h0s0,0,0,0l3.53,3.41h0s9.7,9.36,9.7,9.36l13.23-12.78.07.06.07-.06,13.26,12.8,9.73-9.39h0s3.53-3.41,3.53-3.41h0s0,0,0,0l3.53,3.41h0s9.7,9.37,9.7,9.37l13.25-12.79.02.02h0s13.26,12.8,13.26,12.8l13.26-12.8.07.06.07-.06,13.26,12.8,2.48-2.4s0-.03,0-.04l10.75-10.38.02.02-3.53,3.41,3.53-3.41h0s13.26,12.8,13.26,12.8l13.26-12.8.07.06.07-.06,13.21,12.76,13.23-12.77.02.02h0s.03.03.03.03l.03-.03h0s0,0,0,0l3.53,3.41h0s9.7,9.36,9.7,9.36l13.23-12.78.07.06.07-.06,13.26,12.8,9.73-9.39h0s3.53-3.41,3.53-3.41h0s0,0,0,0l3.53,3.41h0s9.7,9.37,9.7,9.37l13.25-12.79.02.02h0s13.26,12.8,13.26,12.8l13.26-12.8.07.06.07-.06,13.26,12.8,9.73-9.39h0s3.53-3.41,3.53-3.41h0s0,0,0,0l3.53,3.41h0s9.73,9.39,9.73,9.39l9.85-9.51V0H.12v13.85L10.81,3.53l.02.02Z"/>
      <path class="cls-2" d="M1.07,144.48l9.73-9.4-3.52-3.39,3.53-3.41-.02-.02L.12,138.58l-.03.03c0,.54-.03,1.08-.05,1.62.04.09.06.19.06.31,0,1,0,1.99,0,2.99,0,.65-.01,1.3-.04,1.95l.07-.06.97-.93h-.01Z"/>
      <path class="cls-2" d="M1.08,102.86l9.73-9.4h0l9.75,9.41h-.01s3.53,3.42,3.53,3.42h.01s.01,0,.01,0l3.53-3.41h-.01s9.79-9.47,9.79-9.47l3.38,3.27v.07l6.33,6.11h-.01s3.53,3.42,3.53,3.42h.01s.01,0,.01,0l.02-.02.04.04h.01s.01,0,.01,0l3.53-3.41h-.01s9.7-9.37,9.7-9.37l9.7,9.36h-.01s3.53,3.42,3.53,3.42h.01s.01,0,.01,0l.02-.02.02.02h.01s.01,0,.01,0l3.53-3.41h-.01s6.32-6.11,6.32-6.11v-.06l3.42-3.3,9.79,9.46h-.01s3.53,3.42,3.53,3.42h.01s.01,0,.01,0l3.53-3.41h-.01s9.73-9.4,9.73-9.4l3.36,3.24v.02l6.33,6.11h-.01s3.53,3.42,3.53,3.42h.01s.01,0,.01,0h0s.02.01.02.01h.01s.01,0,.01,0l3.53-3.41h-.01s6.32-6.11,6.32-6.11v-.05l3.38-3.26,9.75,9.41h-.01s3.53,3.42,3.53,3.42h.01s.01,0,.01,0l3.53-3.41h-.01s9.79-9.47,9.79-9.47l9.79,9.46h-.01s3.53,3.42,3.53,3.42h.01s.01,0,.01,0l2.53-2.44v-.04l.98-.94h-.01s9.73-9.41,9.73-9.41h0l9.75,9.41h-.01s3.53,3.42,3.53,3.42h.01s.01,0,.01,0l3.53-3.41h-.01s9.79-9.47,9.79-9.47l3.38,3.27v.07l6.33,6.11h-.01s3.53,3.42,3.53,3.42h.01s.01,0,.01,0l.02-.02.04.04h.01s.01,0,.01,0l3.53-3.41h-.01s9.7-9.37,9.7-9.37l9.7,9.36h-.01s3.53,3.42,3.53,3.42h.01s.01,0,.01,0l.02-.02.02.02h.01s.01,0,.01,0l3.53-3.41h-.01s6.32-6.11,6.32-6.11v-.06l3.42-3.3,9.79,9.46h-.01s3.53,3.42,3.53,3.42h.01s.01,0,.01,0l3.53-3.41h-.01s9.73-9.4,9.73-9.4l3.36,3.24v.02l6.33,6.11h-.01s3.53,3.42,3.53,3.42h.01s.01,0,.01,0h0s.02.01.02.01h.01s.01,0,.01,0l3.53-3.41h-.01s6.32-6.11,6.32-6.11v-.05l3.38-3.26,9.75,9.41h-.01s3.53,3.42,3.53,3.42h.01s.01,0,.01,0l3.53-3.41h-.01s9.79-9.47,9.79-9.47l9.79,9.46h-.01s3.53,3.42,3.53,3.42h.01s.01,0,.01,0l3.53-3.41h-.01s9.73-9.4,9.73-9.4l9.73,9.39h-.01s3.53,3.42,3.53,3.42h.01s.01,0,.01,0l3.53-3.41h-.01s6.32-6.11,6.32-6.11v-6.82l-9.85,9.51-9.73-9.39h0s-3.53-3.41-3.53-3.41h0s0,0,0,0l-3.53,3.41h0s-9.73,9.39-9.73,9.39l-13.26-12.8-.07.06-.07-.06-13.26,12.8-13.26-12.8h0s-.02-.01-.02-.01l-13.25,12.79-9.7-9.36h0s-3.53-3.41-3.53-3.41h0s0,0,0,0l-3.53,3.41h0s-9.73,9.39-9.73,9.39l-13.26-12.8-.07.06-.07-.06-13.23,12.78-9.7-9.36h0s-3.53-3.41-3.53-3.41h0s0,0,0,0l-.03.03-.03-.03h0s-.02-.01-.02-.01l-13.23,12.77-13.21-12.76-.07.06-.07-.06-13.26,12.8-13.26-12.8h0s-3.53,3.41-3.53,3.41h0s3.53-3.41,3.53-3.41l-.02-.02-10.71,10.34s0,.03,0,.04l-2.52,2.44-13.26-12.8-.07.06-.07-.06-13.26,12.8-13.26-12.8h0s-.02-.01-.02-.01l-13.25,12.79-9.7-9.36h0s-3.53-3.41-3.53-3.41h0s0,0,0,0l-3.53,3.41h0s-9.73,9.39-9.73,9.39l-13.26-12.8-.07.06-.07-.06-13.23,12.78-9.7-9.36h0s-3.53-3.41-3.53-3.41h0s0,0,0,0l-.03.03-.03-.03h0s-.02-.01-.02-.01l-13.23,12.77-13.21-12.76-.07.06-.07-.06-13.26,12.8-13.26-12.8h0s-3.53,3.41-3.53,3.41h0s3.53-3.41,3.53-3.41l-.02-.02L.12,96.97h-.01c0,1.76-.07,3.51-.04,5.25.01.53.03,1.08.02,1.62l.03-.03.98-.94h-.01Z"/>
      <path class="cls-2" d="M1.07,123.67l9.73-9.4,9.75,9.41h-.01s3.53,3.42,3.53,3.42h.01s.01,0,.01,0l3.53-3.41h-.01s9.79-9.47,9.79-9.47l3.4,3.28v.07l6.32,6.1h-.01s3.53,3.42,3.53,3.42h.01s.01,0,.01,0l.02-.02.04.04h.01s.01,0,.01,0l3.53-3.41h-.01s9.7-9.37,9.7-9.37l9.7,9.36h-.01s3.53,3.42,3.53,3.42h.01s.01,0,.01,0l.02-.02.02.02h.01s.01,0,.01,0l3.53-3.41h-.01s6.33-6.12,6.33-6.12v-.06l3.41-3.29,9.79,9.46h-.01s3.53,3.42,3.53,3.42h.01s.01,0,.01,0l3.53-3.41h-.01s9.73-9.4,9.73-9.4l3.37,3.25v.02l6.32,6.1h-.01s3.53,3.42,3.53,3.42h.01s.01,0,.01,0h0s.02.01.02.01h.01s.01,0,.01,0l3.53-3.41h-.01s6.33-6.12,6.33-6.12v-.05l3.36-3.25,9.75,9.41h-.01s3.53,3.42,3.53,3.42h.01s.01,0,.01,0l3.53-3.41h-.01s9.79-9.47,9.79-9.47l9.79,9.46h-.01s3.53,3.42,3.53,3.42h.01s.01,0,.01,0l2.54-2.45v-.04l.97-.93h-.01s9.73-9.41,9.73-9.41l9.75,9.41h-.01s3.53,3.42,3.53,3.42h.01s.01,0,.01,0l3.53-3.41h-.01s9.79-9.47,9.79-9.47l3.4,3.28v.07l6.32,6.1h-.01s3.53,3.42,3.53,3.42h.01s.01,0,.01,0l.02-.02.04.04h.01s.01,0,.01,0l3.53-3.41h-.01s9.7-9.37,9.7-9.37l9.7,9.36h-.01s3.53,3.42,3.53,3.42h.01s.01,0,.01,0l.02-.02.02.02h.01s.01,0,.01,0l3.53-3.41h-.01s6.33-6.12,6.33-6.12v-.06l3.41-3.29,9.79,9.46h-.01s3.53,3.42,3.53,3.42h.01s.01,0,.01,0l3.53-3.41h-.01s9.73-9.4,9.73-9.4l3.37,3.25v.02l6.32,6.1h-.01s3.53,3.42,3.53,3.42h.01s.01,0,.01,0h0s.02.01.02.01h.01s.01,0,.01,0l3.53-3.41h-.01s6.33-6.12,6.33-6.12v-.05l3.36-3.25,9.75,9.41h-.01s3.53,3.42,3.53,3.42h.01s.01,0,.01,0l3.53-3.41h-.01s9.79-9.47,9.79-9.47l9.79,9.46h-.01s3.53,3.42,3.53,3.42h.01s.01,0,.01,0l3.53-3.41h-.01s9.73-9.4,9.73-9.4l9.73,9.39h-.01s3.53,3.42,3.53,3.42h.01s.01,0,.01,0l3.53-3.41h-.01s6.33-6.12,6.33-6.12v-6.82l-9.86,9.52-9.73-9.39h0s-3.53-3.41-3.53-3.41h0s0,0,0,0l-3.53,3.41h0s-9.73,9.39-9.73,9.39l-13.26-12.8-.07.06-.07-.06-13.26,12.8-13.26-12.8h0s-.02-.01-.02-.01l-13.25,12.79-9.7-9.36h0s-3.53-3.41-3.53-3.41h0s0,0,0,0l-3.53,3.41h0s-9.73,9.39-9.73,9.39l-13.26-12.8-.07.06-.07-.06-13.23,12.78-9.7-9.36h0s-3.53-3.41-3.53-3.41h0s0,0,0,0l-.03.03-.03-.03h0s-.02-.01-.02-.01l-13.23,12.77-13.21-12.76-.07.06-.07-.06-13.26,12.8-13.26-12.8h0s-.02-.01-.02-.01l-10.7,10.33s0,.03,0,.04l-2.54,2.45-13.26-12.8-.07.06-.07-.06-13.26,12.8-13.26-12.8h0s-.02-.01-.02-.01l-13.25,12.79-9.7-9.36h0s-3.53-3.41-3.53-3.41h0s0,0,0,0l-3.53,3.41h0s-9.73,9.39-9.73,9.39l-13.26-12.8-.07.06-.07-.06-13.23,12.78-9.7-9.36h0s-3.53-3.41-3.53-3.41h0s0,0,0,0l-.03.03-.03-.03h0s-.02-.01-.02-.01l-13.23,12.77-13.21-12.76-.07.06-.07-.06-13.26,12.8-13.26-12.8h0s-.02-.01-.02-.01L.12,117.77h-.01c0,1.35-.03,2.69.01,4.03,0,.03,0,.06,0,.09.03.8.06,1.6,0,2.39,0,.12-.01.24-.03.37l.03-.03.97-.93h-.01ZM186.07,124.27v-.02c.06-.79.03-1.58,0-2.37.03.8.06,1.6,0,2.39Z"/>
      <path class="cls-2" d="M1.07,82.35l9.73-9.4-3.52-3.39,3.53-3.41-.02-.02L.12,76.45l-.04.03c0,2.27.06,4.55.03,6.82h0s.97-.94.97-.94h-.01Z"/>
      <path class="cls-2" d="M1.08,40.73l9.73-9.4h0l9.75,9.41h-.01s3.53,3.42,3.53,3.42h.01s.01,0,.01,0l3.53-3.41h-.01s9.79-9.47,9.79-9.47l3.38,3.27v.07l6.33,6.11h-.01s3.53,3.42,3.53,3.42h.01s.01,0,.01,0l.02-.02.04.04h.01s.01,0,.01,0l3.53-3.41h-.01s9.7-9.37,9.7-9.37l9.7,9.36h-.01s3.53,3.42,3.53,3.42h.01s.01,0,.01,0l.02-.02.02.02h.01s.01,0,.01,0l3.53-3.41h-.01s6.32-6.11,6.32-6.11v-.06l3.42-3.3,9.79,9.46h-.01s3.53,3.42,3.53,3.42h.01s.01,0,.01,0l3.53-3.41h-.01s9.73-9.4,9.73-9.4l3.36,3.24v.02l6.33,6.11h-.01s3.53,3.42,3.53,3.42h.01s.01,0,.01,0h0s.02.01.02.01h.01s.01,0,.01,0l3.53-3.41h-.01s6.32-6.11,6.32-6.11v-.05l3.38-3.26,9.75,9.41h-.01s3.53,3.42,3.53,3.42h.01s.01,0,.01,0l3.53-3.41h-.01s9.79-9.47,9.79-9.47l9.79,9.46h-.01s3.53,3.42,3.53,3.42h.01s.01,0,.01,0l2.53-2.44v-.04l.98-.94h-.01s9.73-9.41,9.73-9.41h0l9.75,9.41h-.01s3.53,3.42,3.53,3.42h.01s.01,0,.01,0l3.53-3.41h-.01s9.79-9.47,9.79-9.47l3.38,3.27v.07l6.33,6.11h-.01s3.53,3.42,3.53,3.42h.01s.01,0,.01,0l.02-.02.04.04h.01s.01,0,.01,0l3.53-3.41h-.01s9.7-9.37,9.7-9.37l9.7,9.36h-.01s3.53,3.42,3.53,3.42h.01s.01,0,.01,0l.02-.02.02.02h.01s.01,0,.01,0l3.53-3.41h-.01s6.32-6.11,6.32-6.11v-.06l3.42-3.3,9.79,9.46h-.01s3.53,3.42,3.53,3.42h.01s.01,0,.01,0l3.53-3.41h-.01s9.73-9.4,9.73-9.4l3.36,3.24v.02l6.33,6.11h-.01s3.53,3.42,3.53,3.42h.01s.01,0,.01,0h0s.02.01.02.01h.01s.01,0,.01,0l3.53-3.41h-.01s6.32-6.11,6.32-6.11v-.05l3.38-3.26,9.75,9.41h-.01s3.53,3.42,3.53,3.42h.01s.01,0,.01,0l3.53-3.41h-.01s9.79-9.47,9.79-9.47l9.79,9.46h-.01s3.53,3.42,3.53,3.42h.01s.01,0,.01,0l3.53-3.41h-.01s9.73-9.4,9.73-9.4l9.73,9.39h-.01s3.53,3.42,3.53,3.42h.01s.01,0,.01,0l3.53-3.41h-.01s6.32-6.11,6.32-6.11v-7.01l-9.86,9.52-9.73-9.39h0s-3.53-3.41-3.53-3.41h0s0,0,0,0l-3.53,3.41h0s-9.73,9.39-9.73,9.39l-13.26-12.8-.07.06-.07-.06-13.26,12.8-13.26-12.8h0s-.02-.01-.02-.01l-13.25,12.79-9.7-9.36h0s-3.53-3.41-3.53-3.41h0s0,0,0,0l-3.53,3.41h0s-9.73,9.39-9.73,9.39l-13.26-12.8-.07.06-.07-.06-13.23,12.78-9.7-9.36h0s-3.53-3.41-3.53-3.41h0s0,0,0,0l-.03.03-.03-.03h0s-.02-.01-.02-.01l-13.23,12.77-13.21-12.76-.07.06-.07-.06-13.26,12.8-13.26-12.8h0s-.02-.01-.02-.01l-10.73,10.36s0,.02,0,.03h0s-2.52,2.43-2.52,2.43l-13.26-12.8-.07.06-.07-.06-13.26,12.8-13.26-12.8h0s-.02-.01-.02-.01l-13.25,12.79-9.7-9.36h0s-3.53-3.41-3.53-3.41h0s0,0,0,0l-3.53,3.41h0s-9.73,9.39-9.73,9.39l-13.26-12.8-.07.06-.07-.06-13.23,12.78-9.7-9.36h0s-3.53-3.41-3.53-3.41h0s0,0,0,0l-.03.03-.03-.03h0s-.02-.01-.02-.01l-13.23,12.77-13.21-12.76-.07.06-.07-.06-13.26,12.8-13.26-12.8h0s-.02-.01-.02-.01L.12,34.65l-.04.04s0,.02,0,.03c0,1.68.03,3.37,0,5.06-.01.67-.03,1.33-.05,2l.09-.09.98-.94h-.01Z"/>
      <path class="cls-2" d="M1.07,61.54l9.73-9.4,9.75,9.41h-.01s3.53,3.42,3.53,3.42h.01s.01,0,.01,0l3.53-3.41h-.01s9.79-9.47,9.79-9.47l3.4,3.28v.07l6.32,6.1h-.01s3.53,3.42,3.53,3.42h.01s.01,0,.01,0l.02-.02.04.04h.01s.01,0,.01,0l3.53-3.41h-.01s9.7-9.37,9.7-9.37l9.7,9.36h-.01s3.53,3.42,3.53,3.42h.01s.01,0,.01,0l.02-.02.02.02h.01s.01,0,.01,0l3.53-3.41h-.01s6.33-6.12,6.33-6.12v-.06l3.41-3.29,9.79,9.46h-.01s3.53,3.42,3.53,3.42h.01s.01,0,.01,0l3.53-3.41h-.01s9.73-9.4,9.73-9.4l3.37,3.25v.02l6.32,6.1h-.01s3.53,3.42,3.53,3.42h.01s.01,0,.01,0h0s.02.01.02.01h.01s.01,0,.01,0l3.53-3.41h-.01s6.33-6.12,6.33-6.12v-.05l3.36-3.25,9.75,9.41h-.01s3.53,3.42,3.53,3.42h.01s.01,0,.01,0l3.53-3.41h-.01s9.79-9.47,9.79-9.47l9.79,9.46h-.01s3.53,3.42,3.53,3.42h.01s.01,0,.01,0l2.54-2.45v-.04l.97-.93h-.01s9.73-9.41,9.73-9.41l9.75,9.41h-.01s3.53,3.42,3.53,3.42h.01s.01,0,.01,0l3.53-3.41h-.01s9.79-9.47,9.79-9.47l3.4,3.28v.07l6.32,6.1h-.01s3.53,3.42,3.53,3.42h.01s.01,0,.01,0l.02-.02.04.04h.01s.01,0,.01,0l3.53-3.41h-.01s9.7-9.37,9.7-9.37l9.7,9.36h-.01s3.53,3.42,3.53,3.42h.01s.01,0,.01,0l.02-.02.02.02h.01s.01,0,.01,0l3.53-3.41h-.01s6.33-6.12,6.33-6.12v-.06l3.41-3.29,9.79,9.46h-.01s3.53,3.42,3.53,3.42h.01s.01,0,.01,0l3.53-3.41h-.01s9.73-9.4,9.73-9.4l3.37,3.25v.02l6.32,6.1h-.01s3.53,3.42,3.53,3.42h.01s.01,0,.01,0h0s.02.01.02.01h.01s.01,0,.01,0l3.53-3.41h-.01s6.33-6.12,6.33-6.12v-.05l3.36-3.25,9.75,9.41h-.01s3.53,3.42,3.53,3.42h.01s.01,0,.01,0l3.53-3.41h-.01s9.79-9.47,9.79-9.47l9.79,9.46h-.01s3.53,3.42,3.53,3.42h.01s.01,0,.01,0l3.53-3.41h-.01s9.73-9.4,9.73-9.4l9.73,9.39h-.01s3.53,3.42,3.53,3.42h.01s.01,0,.01,0l3.53-3.41h-.01s6.33-6.12,6.33-6.12v-7l-9.86,9.52-9.73-9.39h0s-3.53-3.41-3.53-3.41h0s0,0,0,0l-3.53,3.41h0s-9.73,9.39-9.73,9.39l-13.26-12.8-.07.06-.07-.06-13.26,12.8-13.26-12.8h0s-.02-.01-.02-.01l-13.25,12.79-9.7-9.36h0s-3.53-3.41-3.53-3.41h0s0,0,0,0l-3.53,3.41h0s-9.73,9.39-9.73,9.39l-13.26-12.8-.07.06-.07-.06-13.23,12.78-9.7-9.36h0s-3.53-3.41-3.53-3.41h0s0,0,0,0l-.03.03-.03-.03h0s-.02-.01-.02-.01l-13.23,12.77-13.21-12.76-.07.06-.07-.06-13.26,12.8-13.26-12.8h0s-3.53,3.41-3.53,3.41l.08.07h0l-.08-.07,3.53-3.41-.02-.02-10.7,10.33s0,.03,0,.04l-2.53,2.45-13.26-12.8-.07.06-.07-.06-13.26,12.8-13.26-12.8h0s-.02-.01-.02-.01l-13.25,12.79-9.7-9.36h0s-3.53-3.41-3.53-3.41h0s0,0,0,0l-3.53,3.41h0s-9.73,9.39-9.73,9.39l-13.26-12.8-.07.06-.07-.06-13.23,12.78-9.7-9.36h0s-3.53-3.41-3.53-3.41h0s0,0,0,0l-.03.03-.03-.03h0s-.02-.01-.02-.01l-13.23,12.77-13.21-12.76-.07.06-.07-.06-13.26,12.8-13.26-12.8h0s-3.53,3.41-3.53,3.41l.08.07h0l-.08-.07,3.53-3.41-.02-.02L.12,55.46l-.02.02c0,1.8-.04,3.6-.06,5.4,0,.56,0,1.11,0,1.67l.07-.07.97-.93h-.01Z"/>
      <path class="cls-2" d="M1.08,19.74l9.73-9.4h0l9.75,9.41h-.01s3.53,3.42,3.53,3.42h.01s.01,0,.01,0l3.53-3.41h-.01s9.79-9.47,9.79-9.47l3.38,3.27v.07l6.33,6.11h-.01s3.53,3.42,3.53,3.42h.01s.01,0,.01,0l.02-.02.04.04h.01s.01,0,.01,0l3.53-3.41h-.01s9.7-9.37,9.7-9.37l9.7,9.36h-.01s3.53,3.42,3.53,3.42h.01s.01,0,.01,0l.02-.02.02.02h.01s.01,0,.01,0l3.53-3.41h-.01s6.32-6.11,6.32-6.11v-.06l3.42-3.3,9.79,9.46h-.01s3.53,3.42,3.53,3.42h.01s.01,0,.01,0l3.53-3.41h-.01s9.73-9.4,9.73-9.4l3.36,3.24v.02l6.33,6.11h-.01s3.53,3.42,3.53,3.42h.01s.01,0,.01,0h0s.02.01.02.01h.01s.01,0,.01,0l3.53-3.41h-.01s6.32-6.11,6.32-6.11v-.05l3.38-3.26,9.75,9.41h-.01s3.53,3.42,3.53,3.42h.01s.01,0,.01,0l3.53-3.41h-.01s9.79-9.47,9.79-9.47l9.79,9.46h-.01s3.53,3.42,3.53,3.42h.01s.01,0,.01,0l2.53-2.44v-.04l.98-.94h-.01s9.73-9.41,9.73-9.41h0l9.75,9.41h-.01s3.53,3.42,3.53,3.42h.01s.01,0,.01,0l3.53-3.41h-.01s9.79-9.47,9.79-9.47l3.38,3.27v.07l6.33,6.11h-.01s3.53,3.42,3.53,3.42h.01s.01,0,.01,0l.02-.02.04.04h.01s.01,0,.01,0l3.53-3.41h-.01s9.7-9.37,9.7-9.37l9.7,9.36h-.01s3.53,3.42,3.53,3.42h.01s.01,0,.01,0l.02-.02.02.02h.01s.01,0,.01,0l3.53-3.41h-.01s6.32-6.11,6.32-6.11v-.06l3.42-3.3,9.79,9.46h-.01s3.53,3.42,3.53,3.42h.01s.01,0,.01,0l3.53-3.41h-.01s9.73-9.4,9.73-9.4l3.36,3.24v.02l6.33,6.11h-.01s3.53,3.42,3.53,3.42h.01s.01,0,.01,0h0s.02.01.02.01h.01s.01,0,.01,0l3.53-3.41h-.01s6.32-6.11,6.32-6.11v-.05l3.38-3.26,9.75,9.41h-.01s3.53,3.42,3.53,3.42h.01s.01,0,.01,0l3.53-3.41h-.01s9.79-9.47,9.79-9.47l9.79,9.46h-.01s3.53,3.42,3.53,3.42h.01s.01,0,.01,0l3.53-3.41h-.01s9.73-9.4,9.73-9.4l9.73,9.39h-.01s3.53,3.42,3.53,3.42h.01s.01,0,.01,0l3.53-3.41h-.01s6.32-6.11,6.32-6.11v-6.82l-9.85,9.51-9.73-9.39h0s-3.53-3.41-3.53-3.41h0s0,0,0,0l-3.53,3.41h0s-9.73,9.39-9.73,9.39l-13.26-12.8-.07.06-.07-.06-13.26,12.8-13.26-12.8h0s-.02-.01-.02-.01l-13.25,12.79-9.7-9.36h0s-3.53-3.41-3.53-3.41h0s0,0,0,0l-3.53,3.41h0s-9.73,9.39-9.73,9.39l-13.26-12.8-.07.06-.07-.06-13.23,12.78-9.7-9.36h0s-3.53-3.41-3.53-3.41h0s0,0,0,0l-.03.03-.03-.03h0s-.02-.01-.02-.01l-13.23,12.77-13.21-12.76-.07.06-.07-.06-13.26,12.8-13.26-12.8h0s-3.53,3.41-3.53,3.41l3.53-3.41-.02-.02-10.75,10.38s0,.03,0,.04l-2.48,2.4-13.26-12.8-.07.06-.07-.06-13.26,12.8-13.26-12.8h0s-.02-.01-.02-.01l-13.25,12.79-9.7-9.36h0s-3.53-3.41-3.53-3.41h0s0,0,0,0l-3.53,3.41h0s-9.73,9.39-9.73,9.39l-13.26-12.8-.07.06-.07-.06-13.23,12.78-9.7-9.36h0s-3.53-3.41-3.53-3.41h0s0,0,0,0l-.03.03-.03-.03h0s-.02-.01-.02-.01l-13.23,12.77-13.21-12.76-.07.06-.07-.06-13.26,12.8L10.83,3.54h0s-3.53,3.41-3.53,3.41l3.53-3.41-.02-.02L.12,13.85l-.06.06c0,.88,0,1.77-.06,2.64,0,.02,0,.03,0,.04v4.2l.11-.1.98-.94h-.01Z"/>
      <polygon class="cls-3" points="399.51 144.49 399.52 144.5 395.99 147.92 395.97 147.9 395.96 147.92 392.43 144.5 392.44 144.49 382.72 135.1 372.99 144.49 373 144.5 369.47 147.92 369.46 147.9 369.45 147.92 365.92 144.5 365.93 144.49 356.13 135.04 346.34 144.49 346.35 144.5 342.82 147.92 342.81 147.9 342.79 147.92 339.26 144.5 339.27 144.49 329.53 135.08 326.17 138.33 326.17 138.38 319.84 144.49 319.85 144.5 316.32 147.92 316.31 147.9 316.29 147.92 316.28 147.9 316.28 147.9 316.27 147.89 316.25 147.9 312.72 144.49 312.73 144.48 306.42 138.38 306.42 138.36 303.05 135.1 293.32 144.49 293.33 144.5 289.8 147.92 289.79 147.9 289.78 147.92 286.25 144.5 286.26 144.49 276.46 135.04 273.06 138.33 273.06 138.38 266.73 144.49 266.74 144.5 263.21 147.92 263.2 147.9 263.18 147.92 263.17 147.9 263.15 147.92 263.14 147.9 263.13 147.92 259.59 144.5 259.61 144.49 249.91 135.13 240.21 144.49 240.22 144.5 236.69 147.92 236.68 147.9 236.67 147.92 236.63 147.88 236.61 147.9 236.6 147.89 236.59 147.9 233.05 144.49 233.06 144.48 226.75 138.38 226.75 138.31 223.35 135.04 213.56 144.49 213.57 144.5 210.04 147.92 210.03 147.9 210.02 147.92 206.48 144.5 206.49 144.49 196.75 135.08 193.23 131.69 196.75 135.08 187.02 144.48 187.03 144.49 186.07 145.42 186.07 145.46 183.52 147.92 183.51 147.9 183.5 147.92 179.97 144.5 179.98 144.49 170.19 135.04 160.39 144.49 160.4 144.5 156.87 147.92 156.86 147.9 156.85 147.92 153.31 144.5 153.33 144.49 143.58 135.08 140.22 138.33 140.22 138.38 133.89 144.49 133.9 144.5 130.37 147.92 130.36 147.9 130.35 147.92 130.33 147.9 130.33 147.9 130.32 147.89 130.31 147.9 126.77 144.49 126.79 144.48 120.47 138.38 120.47 138.36 117.1 135.1 107.38 144.49 107.39 144.5 103.85 147.92 103.84 147.9 103.83 147.92 100.3 144.5 100.31 144.49 90.52 135.04 87.11 138.33 87.11 138.38 80.78 144.49 80.79 144.5 77.26 147.92 77.25 147.9 77.24 147.92 77.22 147.9 77.2 147.92 77.19 147.9 77.18 147.92 73.65 144.5 73.66 144.49 63.96 135.13 54.27 144.49 54.28 144.5 50.74 147.92 50.73 147.9 50.72 147.92 50.68 147.88 50.66 147.9 50.65 147.89 50.64 147.9 47.11 144.49 47.12 144.48 40.8 138.38 40.8 138.31 37.41 135.04 27.61 144.49 27.62 144.5 24.09 147.92 24.08 147.9 24.07 147.92 20.54 144.5 20.55 144.49 10.8 135.08 7.29 131.69 10.8 135.08 1.07 144.48 1.08 144.49 .12 145.42 .12 150.05 40.8 150.05 87.11 150.05 120.47 150.05 140.22 150.05 173.64 150.05 186.07 150.05 219.89 150.05 226.75 150.05 273.06 150.05 306.42 150.05 326.17 150.05 405.84 150.05 405.84 138.38 399.51 144.49"/>
      <path class="cls-3" d="M186.07,124.25v.02c.06-.79.03-1.6,0-2.39.03.79.06,1.58,0,2.37Z"/>
      <polygon class="cls-3" points="193.31 48.64 193.31 48.64 193.23 48.57 193.31 48.64"/>
      <polygon class="cls-2" points="386.25 131.69 386.25 131.69 382.72 128.28 382.72 128.28 382.71 128.28 379.18 131.69 379.18 131.69 369.46 141.08 356.2 128.28 356.13 128.34 356.07 128.28 342.81 141.08 329.55 128.28 329.54 128.28 329.53 128.27 316.28 141.06 306.58 131.69 306.58 131.69 303.05 128.28 303.05 128.28 303.04 128.28 299.51 131.69 299.52 131.69 289.79 141.08 276.53 128.28 276.46 128.34 276.4 128.28 263.17 141.05 253.47 131.69 253.47 131.69 249.94 128.28 249.94 128.28 249.93 128.28 249.91 128.31 249.88 128.28 249.87 128.28 249.86 128.27 236.63 141.04 223.42 128.28 223.35 128.34 223.29 128.28 210.03 141.08 196.77 128.28 196.76 128.28 193.23 131.69 196.75 135.08 206.49 144.49 206.48 144.5 210.02 147.92 210.03 147.9 210.04 147.92 213.57 144.5 213.56 144.49 223.35 135.04 226.75 138.31 226.75 138.38 233.06 144.48 233.05 144.49 236.59 147.9 236.6 147.89 236.61 147.9 236.63 147.88 236.67 147.92 236.68 147.9 236.69 147.92 240.22 144.5 240.21 144.49 249.91 135.13 259.61 144.49 259.59 144.5 263.13 147.92 263.14 147.9 263.15 147.92 263.17 147.9 263.18 147.92 263.2 147.9 263.21 147.92 266.74 144.5 266.73 144.49 273.06 138.38 273.06 138.33 276.46 135.04 286.26 144.49 286.25 144.5 289.78 147.92 289.79 147.9 289.8 147.92 293.33 144.5 293.32 144.49 303.05 135.1 306.42 138.36 306.42 138.38 312.73 144.48 312.72 144.49 316.25 147.9 316.27 147.89 316.28 147.9 316.28 147.9 316.29 147.92 316.31 147.9 316.32 147.92 319.85 144.5 319.84 144.49 326.17 138.38 326.17 138.33 329.53 135.08 339.27 144.49 339.26 144.5 342.79 147.92 342.81 147.9 342.82 147.92 346.35 144.5 346.34 144.49 356.13 135.04 365.93 144.49 365.92 144.5 369.45 147.92 369.46 147.9 369.47 147.92 373 144.5 372.99 144.49 382.72 135.1 392.44 144.49 392.43 144.5 395.96 147.92 395.97 147.9 395.99 147.92 399.52 144.5 399.51 144.49 405.84 138.38 405.84 131.56 395.97 141.08 386.25 131.69"/>
      <path class="cls-2" d="M196.75,128.27l-10.71,10.34s0,.03,0,.04l-2.52,2.44-13.26-12.8-.07.06-.07-.06-13.26,12.8-13.26-12.8h0s-.02-.01-.02-.01l-13.25,12.79-9.7-9.36h0s-3.53-3.41-3.53-3.41h0s0,0,0,0l-3.53,3.41h0s-9.73,9.39-9.73,9.39l-13.26-12.8-.07.06-.07-.06-13.23,12.78-9.7-9.36h0s-3.53-3.41-3.53-3.41h0s0,0,0,0l-.03.03-.03-.03h0s-.02-.01-.02-.01l-13.23,12.77-13.21-12.76-.07.06-.07-.06-13.26,12.8-13.26-12.8h0s-3.53,3.41-3.53,3.41l3.52,3.39,9.75,9.41h-.01s3.53,3.42,3.53,3.42h.01s.01,0,.01,0l3.53-3.41h-.01s9.79-9.47,9.79-9.47l3.4,3.28v.07l6.32,6.1h-.01s3.53,3.42,3.53,3.42h.01s.01,0,.01,0l.02-.02.04.04h.01s.01,0,.01,0l3.53-3.41h-.01s9.7-9.37,9.7-9.37l9.7,9.36h-.01s3.53,3.42,3.53,3.42h.01s.01,0,.01,0l.02-.02.02.02h.01s.01,0,.01,0l3.53-3.41h-.01s6.33-6.12,6.33-6.12v-.06l3.41-3.29,9.79,9.46h-.01s3.53,3.42,3.53,3.42h.01s.01,0,.01,0l3.53-3.41h-.01s9.73-9.4,9.73-9.4l3.37,3.25v.02l6.32,6.1h-.01s3.53,3.42,3.53,3.42h.01s.01,0,.01,0h0s.02.01.02.01h.01s.01,0,.01,0l3.53-3.41h-.01s6.33-6.12,6.33-6.12v-.05l3.36-3.25,9.75,9.41h-.01s3.53,3.42,3.53,3.42h.01s.01,0,.01,0l3.53-3.41h-.01s9.79-9.47,9.79-9.47l9.79,9.46h-.01s3.53,3.42,3.53,3.42h.01s.01,0,.01,0l2.54-2.45v-.04l.97-.93h-.01s9.73-9.41,9.73-9.41l-3.52-3.39,3.53-3.41-.02-.02Z"/>
      <path class="cls-2" d="M196.76,66.15l-.02-.02-10.72,10.35s0,.03,0,.04l-2.52,2.43-13.26-12.8-.07.06-.07-.06-13.26,12.8-13.26-12.8h0s-.02-.01-.02-.01l-13.25,12.79-9.7-9.36h0s-3.53-3.41-3.53-3.41h0s0,0,0,0l-3.53,3.41h0s-9.73,9.39-9.73,9.39l-13.26-12.8-.07.06-.07-.06-13.23,12.78-9.7-9.36h0s-3.53-3.41-3.53-3.41h0s0,0,0,0l-.03.03-.03-.03h0s-.02-.01-.02-.01l-13.23,12.77-13.21-12.76-.07.06-.07-.06-13.26,12.8-13.26-12.8h0s-3.53,3.41-3.53,3.41l3.52,3.39,9.75,9.41h-.01s3.53,3.42,3.53,3.42h.01s.01,0,.01,0l3.53-3.41h-.01s9.79-9.47,9.79-9.47l3.4,3.28v.07l6.32,6.1h-.01s3.53,3.42,3.53,3.42h.01s.01,0,.01,0l.02-.02.04.04h.01s.01,0,.01,0l3.53-3.41h-.01s9.7-9.37,9.7-9.37l9.7,9.36h-.01s3.53,3.42,3.53,3.42h.01s.01,0,.01,0l.02-.02.02.02h.01s.01,0,.01,0l3.53-3.41h-.01s6.33-6.12,6.33-6.12v-.06l3.41-3.29,9.79,9.46h-.01s3.53,3.42,3.53,3.42h.01s.01,0,.01,0l3.53-3.41h-.01s9.73-9.4,9.73-9.4l3.37,3.25v.02l6.32,6.1h-.01s3.53,3.42,3.53,3.42h.01s.01,0,.01,0h0s.02.01.02.01h.01s.01,0,.01,0l3.53-3.41h-.01s6.33-6.12,6.33-6.12v-.05l3.36-3.25,9.75,9.41h-.01s3.53,3.42,3.53,3.42h.01s.01,0,.01,0l3.53-3.41h-.01s9.79-9.47,9.79-9.47l9.79,9.46h-.01s3.53,3.42,3.53,3.42h.01s.01,0,.01,0l2.54-2.45v-.04l.97-.93h-.01s9.73-9.41,9.73-9.41l-3.52-3.39,3.53-3.41Z"/>
      <polygon class="cls-2" points="386.25 69.56 386.25 69.56 382.72 66.15 382.72 66.15 382.71 66.15 379.18 69.56 379.18 69.56 369.46 78.95 356.2 66.15 356.13 66.21 356.07 66.15 342.81 78.95 329.55 66.15 329.54 66.15 329.53 66.13 316.28 78.92 306.58 69.56 306.58 69.56 303.05 66.15 303.05 66.15 303.04 66.15 299.51 69.56 299.52 69.56 289.79 78.95 276.53 66.15 276.46 66.21 276.4 66.15 263.17 78.92 253.47 69.56 253.47 69.56 249.94 66.15 249.94 66.15 249.93 66.15 249.91 66.18 249.88 66.15 249.87 66.15 249.86 66.13 236.63 78.9 223.42 66.15 223.35 66.21 223.29 66.15 210.03 78.95 196.77 66.15 196.76 66.15 193.23 69.56 196.75 72.95 206.49 82.36 206.48 82.37 210.02 85.78 210.03 85.77 210.04 85.78 213.57 82.37 213.56 82.36 223.35 72.91 226.75 76.18 226.75 76.25 233.06 82.35 233.05 82.36 236.59 85.77 236.6 85.76 236.61 85.77 236.63 85.75 236.67 85.78 236.68 85.77 236.69 85.78 240.22 82.37 240.21 82.36 249.91 73 259.61 82.36 259.59 82.37 263.13 85.78 263.14 85.77 263.15 85.78 263.17 85.77 263.18 85.78 263.2 85.77 263.21 85.78 266.74 82.37 266.73 82.36 273.06 76.25 273.06 76.2 276.46 72.91 286.26 82.36 286.25 82.37 289.78 85.78 289.79 85.77 289.8 85.78 293.33 82.37 293.32 82.36 303.05 72.97 306.42 76.23 306.42 76.25 312.73 82.35 312.72 82.36 316.25 85.77 316.27 85.76 316.28 85.77 316.28 85.77 316.29 85.78 316.31 85.77 316.32 85.78 319.85 82.37 319.84 82.36 326.17 76.25 326.17 76.2 329.53 72.95 339.27 82.36 339.26 82.37 342.79 85.78 342.81 85.77 342.82 85.78 346.35 82.37 346.34 82.36 356.13 72.91 365.93 82.36 365.92 82.37 369.45 85.78 369.46 85.77 369.47 85.78 373 82.37 372.99 82.36 382.72 72.97 392.44 82.36 392.43 82.37 395.96 85.78 395.97 85.77 395.99 85.78 399.52 82.37 399.51 82.36 405.84 76.25 405.84 69.43 395.97 78.95 386.25 69.56"/>
    </g>
  </g>
</svg>