<?xml version="1.0" encoding="UTF-8"?>
<svg id="_レイヤー_2" data-name="レイヤー_2" xmlns="http://www.w3.org/2000/svg" viewBox="0 0 421.64 95.91">
  <defs>
    <style>
      .cls-1 {
        fill: #fff;
      }
    </style>
  </defs>
  <g id="_レイヤー_1-2" data-name="レイヤー_1">
    <ellipse class="cls-1" cx="118.6" cy="12.24" rx="25.55" ry="12.24"/>
    <ellipse class="cls-1" cx="83.86" cy="12.24" rx="25.55" ry="12.24"/>
    <ellipse class="cls-1" cx="145.82" cy="12.24" rx="25.55" ry="12.24"/>
    <ellipse class="cls-1" cx="173.03" cy="12.24" rx="25.55" ry="12.24"/>
    <path class="cls-1" d="M58.3,12.24s-3.4,23.58,70.18,23.03c73.58-.55,70.1-23.03,70.1-23.03"/>
    <ellipse class="cls-1" cx="248.09" cy="13.54" rx="25.55" ry="12.24"/>
    <ellipse class="cls-1" cx="213.35" cy="13.54" rx="25.55" ry="12.24"/>
    <ellipse class="cls-1" cx="275.31" cy="13.54" rx="25.55" ry="12.24"/>
    <ellipse class="cls-1" cx="302.53" cy="13.54" rx="25.55" ry="12.24"/>
    <path class="cls-1" d="M187.8,13.54s-3.4,23.58,70.18,23.03c73.58-.55,70.1-23.03,70.1-23.03"/>
    <ellipse class="cls-1" cx="380.47" cy="13.54" rx="25.55" ry="12.24"/>
    <ellipse class="cls-1" cx="345.73" cy="13.54" rx="25.55" ry="12.24"/>
    <path class="cls-1" d="M421.11,18.39c-.1-1.61-.18-3.23-.21-4.85h-100.73s-3.4,23.58,70.18,23.03c12.06-.09,22.04-.77,30.31-1.85-.07-5.44.34-10.88.44-16.34Z"/>
    <path class="cls-1" d="M20.44,0C12.34,0,5.12,1.81.44,4.62c-.03,5.06-.04,10.13-.07,15.19,4.68,2.84,11.92,4.66,20.06,4.66,14.11,0,25.55-5.48,25.55-12.24S34.55,0,20.44,0Z"/>
    <ellipse class="cls-1" cx="47.66" cy="12.24" rx="25.55" ry="12.24"/>
    <path class="cls-1" d="M73.21,12.24H.41c-.04,6.29-.08,12.57-.08,18.86,0,1.43-.13,2.82-.33,4.18,1.02,0,2.05,0,3.1,0,73.58-.55,70.1-23.03,70.1-23.03Z"/>
    <path class="cls-1" d="M421.31,79.72c-.11-1.78-.24-3.55-.31-5.33-.31-7.78-.19-15.57-.18-23.35,0-2.31.3-4.51.82-6.6-.31-1.24-.54-2.49-.67-3.76-.73-7.41-.02-14.79.13-22.2-.02-.4-.05-.8-.07-1.19H.61v78.64h420.55c-.14-1.05-.23-2.09-.22-3.11-.21-1.21-.3-2.43-.26-3.66-.13-2.74.17-5.63.69-8.38-.02-.35-.02-.7-.06-1.05Z"/>
  </g>
</svg>